G04 #@! TF.FileFunction,Legend,Top*
%FSLAX46Y46*%
G04 Gerber Fmt 4.6, Leading zero omitted, Abs format (unit mm)*
G04 Created by KiCad (PCBNEW 4.0.5) date Tue Feb 28 17:38:33 2017*
%MOMM*%
%LPD*%
G01*
G04 APERTURE LIST*
%ADD10C,0.100000*%
%ADD11C,0.300000*%
%ADD12C,0.200000*%
%ADD13C,0.150000*%
%ADD14C,0.203200*%
%ADD15C,0.002540*%
G04 APERTURE END LIST*
D10*
D11*
X119400715Y-78696429D02*
X119472144Y-78625000D01*
X119615001Y-78553571D01*
X119972144Y-78553571D01*
X120115001Y-78625000D01*
X120186430Y-78696429D01*
X120257858Y-78839286D01*
X120257858Y-78982143D01*
X120186430Y-79196429D01*
X119329287Y-80053571D01*
X120257858Y-80053571D01*
X121186429Y-78553571D02*
X121329286Y-78553571D01*
X121472143Y-78625000D01*
X121543572Y-78696429D01*
X121615001Y-78839286D01*
X121686429Y-79125000D01*
X121686429Y-79482143D01*
X121615001Y-79767857D01*
X121543572Y-79910714D01*
X121472143Y-79982143D01*
X121329286Y-80053571D01*
X121186429Y-80053571D01*
X121043572Y-79982143D01*
X120972143Y-79910714D01*
X120900715Y-79767857D01*
X120829286Y-79482143D01*
X120829286Y-79125000D01*
X120900715Y-78839286D01*
X120972143Y-78696429D01*
X121043572Y-78625000D01*
X121186429Y-78553571D01*
X123115000Y-80053571D02*
X122257857Y-80053571D01*
X122686429Y-80053571D02*
X122686429Y-78553571D01*
X122543572Y-78767857D01*
X122400714Y-78910714D01*
X122257857Y-78982143D01*
X124400714Y-78553571D02*
X124115000Y-78553571D01*
X123972143Y-78625000D01*
X123900714Y-78696429D01*
X123757857Y-78910714D01*
X123686428Y-79196429D01*
X123686428Y-79767857D01*
X123757857Y-79910714D01*
X123829285Y-79982143D01*
X123972143Y-80053571D01*
X124257857Y-80053571D01*
X124400714Y-79982143D01*
X124472143Y-79910714D01*
X124543571Y-79767857D01*
X124543571Y-79410714D01*
X124472143Y-79267857D01*
X124400714Y-79196429D01*
X124257857Y-79125000D01*
X123972143Y-79125000D01*
X123829285Y-79196429D01*
X123757857Y-79267857D01*
X123686428Y-79410714D01*
X127543571Y-78910714D02*
X127400713Y-78839286D01*
X127114999Y-78839286D01*
X126972142Y-78910714D01*
X126829285Y-79053571D01*
X126757856Y-79196429D01*
X126757856Y-79482143D01*
X126829285Y-79625000D01*
X126972142Y-79767857D01*
X127114999Y-79839286D01*
X127400713Y-79839286D01*
X127543571Y-79767857D01*
X127257856Y-78339286D02*
X126900713Y-78410714D01*
X126543571Y-78625000D01*
X126329285Y-78982143D01*
X126257856Y-79339286D01*
X126329285Y-79696429D01*
X126543571Y-80053571D01*
X126900713Y-80267857D01*
X127257856Y-80339286D01*
X127614999Y-80267857D01*
X127972142Y-80053571D01*
X128186428Y-79696429D01*
X128257856Y-79339286D01*
X128186428Y-78982143D01*
X127972142Y-78625000D01*
X127614999Y-78410714D01*
X127257856Y-78339286D01*
X130757857Y-80053571D02*
X130043571Y-80053571D01*
X130043571Y-78553571D01*
X131186428Y-79982143D02*
X131400714Y-80053571D01*
X131757857Y-80053571D01*
X131900714Y-79982143D01*
X131972143Y-79910714D01*
X132043571Y-79767857D01*
X132043571Y-79625000D01*
X131972143Y-79482143D01*
X131900714Y-79410714D01*
X131757857Y-79339286D01*
X131472143Y-79267857D01*
X131329285Y-79196429D01*
X131257857Y-79125000D01*
X131186428Y-78982143D01*
X131186428Y-78839286D01*
X131257857Y-78696429D01*
X131329285Y-78625000D01*
X131472143Y-78553571D01*
X131829285Y-78553571D01*
X132043571Y-78625000D01*
X133186428Y-79267857D02*
X132686428Y-79267857D01*
X132686428Y-80053571D02*
X132686428Y-78553571D01*
X133400714Y-78553571D01*
X127075715Y-111767000D02*
X126932858Y-111695571D01*
X126718572Y-111695571D01*
X126504287Y-111767000D01*
X126361429Y-111909857D01*
X126290001Y-112052714D01*
X126218572Y-112338429D01*
X126218572Y-112552714D01*
X126290001Y-112838429D01*
X126361429Y-112981286D01*
X126504287Y-113124143D01*
X126718572Y-113195571D01*
X126861429Y-113195571D01*
X127075715Y-113124143D01*
X127147144Y-113052714D01*
X127147144Y-112552714D01*
X126861429Y-112552714D01*
X128504287Y-111695571D02*
X127790001Y-111695571D01*
X127718572Y-112409857D01*
X127790001Y-112338429D01*
X127932858Y-112267000D01*
X128290001Y-112267000D01*
X128432858Y-112338429D01*
X128504287Y-112409857D01*
X128575715Y-112552714D01*
X128575715Y-112909857D01*
X128504287Y-113052714D01*
X128432858Y-113124143D01*
X128290001Y-113195571D01*
X127932858Y-113195571D01*
X127790001Y-113124143D01*
X127718572Y-113052714D01*
X129932858Y-111695571D02*
X129218572Y-111695571D01*
X129147143Y-112409857D01*
X129218572Y-112338429D01*
X129361429Y-112267000D01*
X129718572Y-112267000D01*
X129861429Y-112338429D01*
X129932858Y-112409857D01*
X130004286Y-112552714D01*
X130004286Y-112909857D01*
X129932858Y-113052714D01*
X129861429Y-113124143D01*
X129718572Y-113195571D01*
X129361429Y-113195571D01*
X129218572Y-113124143D01*
X129147143Y-113052714D01*
X130932857Y-111695571D02*
X131075714Y-111695571D01*
X131218571Y-111767000D01*
X131290000Y-111838429D01*
X131361429Y-111981286D01*
X131432857Y-112267000D01*
X131432857Y-112624143D01*
X131361429Y-112909857D01*
X131290000Y-113052714D01*
X131218571Y-113124143D01*
X131075714Y-113195571D01*
X130932857Y-113195571D01*
X130790000Y-113124143D01*
X130718571Y-113052714D01*
X130647143Y-112909857D01*
X130575714Y-112624143D01*
X130575714Y-112267000D01*
X130647143Y-111981286D01*
X130718571Y-111838429D01*
X130790000Y-111767000D01*
X130932857Y-111695571D01*
X132361428Y-111695571D02*
X132504285Y-111695571D01*
X132647142Y-111767000D01*
X132718571Y-111838429D01*
X132790000Y-111981286D01*
X132861428Y-112267000D01*
X132861428Y-112624143D01*
X132790000Y-112909857D01*
X132718571Y-113052714D01*
X132647142Y-113124143D01*
X132504285Y-113195571D01*
X132361428Y-113195571D01*
X132218571Y-113124143D01*
X132147142Y-113052714D01*
X132075714Y-112909857D01*
X132004285Y-112624143D01*
X132004285Y-112267000D01*
X132075714Y-111981286D01*
X132147142Y-111838429D01*
X132218571Y-111767000D01*
X132361428Y-111695571D01*
X121611429Y-115317000D02*
X122325715Y-115317000D01*
X121468572Y-115745571D02*
X121968572Y-114245571D01*
X122468572Y-115745571D01*
X122968572Y-115745571D02*
X122968572Y-114745571D01*
X122968572Y-115031286D02*
X123040000Y-114888429D01*
X123111429Y-114817000D01*
X123254286Y-114745571D01*
X123397143Y-114745571D01*
X124540000Y-115745571D02*
X124540000Y-114245571D01*
X124540000Y-115674143D02*
X124397143Y-115745571D01*
X124111429Y-115745571D01*
X123968571Y-115674143D01*
X123897143Y-115602714D01*
X123825714Y-115459857D01*
X123825714Y-115031286D01*
X123897143Y-114888429D01*
X123968571Y-114817000D01*
X124111429Y-114745571D01*
X124397143Y-114745571D01*
X124540000Y-114817000D01*
X125897143Y-114745571D02*
X125897143Y-115745571D01*
X125254286Y-114745571D02*
X125254286Y-115531286D01*
X125325714Y-115674143D01*
X125468572Y-115745571D01*
X125682857Y-115745571D01*
X125825714Y-115674143D01*
X125897143Y-115602714D01*
X126611429Y-115745571D02*
X126611429Y-114745571D01*
X126611429Y-114245571D02*
X126540000Y-114317000D01*
X126611429Y-114388429D01*
X126682857Y-114317000D01*
X126611429Y-114245571D01*
X126611429Y-114388429D01*
X127325715Y-114745571D02*
X127325715Y-115745571D01*
X127325715Y-114888429D02*
X127397143Y-114817000D01*
X127540001Y-114745571D01*
X127754286Y-114745571D01*
X127897143Y-114817000D01*
X127968572Y-114959857D01*
X127968572Y-115745571D01*
X128897144Y-115745571D02*
X128754286Y-115674143D01*
X128682858Y-115602714D01*
X128611429Y-115459857D01*
X128611429Y-115031286D01*
X128682858Y-114888429D01*
X128754286Y-114817000D01*
X128897144Y-114745571D01*
X129111429Y-114745571D01*
X129254286Y-114817000D01*
X129325715Y-114888429D01*
X129397144Y-115031286D01*
X129397144Y-115459857D01*
X129325715Y-115602714D01*
X129254286Y-115674143D01*
X129111429Y-115745571D01*
X128897144Y-115745571D01*
X131111429Y-115674143D02*
X131325715Y-115745571D01*
X131682858Y-115745571D01*
X131825715Y-115674143D01*
X131897144Y-115602714D01*
X131968572Y-115459857D01*
X131968572Y-115317000D01*
X131897144Y-115174143D01*
X131825715Y-115102714D01*
X131682858Y-115031286D01*
X131397144Y-114959857D01*
X131254286Y-114888429D01*
X131182858Y-114817000D01*
X131111429Y-114674143D01*
X131111429Y-114531286D01*
X131182858Y-114388429D01*
X131254286Y-114317000D01*
X131397144Y-114245571D01*
X131754286Y-114245571D01*
X131968572Y-114317000D01*
X132611429Y-115745571D02*
X132611429Y-114245571D01*
X133254286Y-115745571D02*
X133254286Y-114959857D01*
X133182857Y-114817000D01*
X133040000Y-114745571D01*
X132825715Y-114745571D01*
X132682857Y-114817000D01*
X132611429Y-114888429D01*
X133968572Y-115745571D02*
X133968572Y-114745571D01*
X133968572Y-114245571D02*
X133897143Y-114317000D01*
X133968572Y-114388429D01*
X134040000Y-114317000D01*
X133968572Y-114245571D01*
X133968572Y-114388429D01*
X135254286Y-115674143D02*
X135111429Y-115745571D01*
X134825715Y-115745571D01*
X134682858Y-115674143D01*
X134611429Y-115531286D01*
X134611429Y-114959857D01*
X134682858Y-114817000D01*
X134825715Y-114745571D01*
X135111429Y-114745571D01*
X135254286Y-114817000D01*
X135325715Y-114959857D01*
X135325715Y-115102714D01*
X134611429Y-115245571D01*
X136182858Y-115745571D02*
X136040000Y-115674143D01*
X135968572Y-115531286D01*
X135968572Y-114245571D01*
X137397143Y-115745571D02*
X137397143Y-114245571D01*
X137397143Y-115674143D02*
X137254286Y-115745571D01*
X136968572Y-115745571D01*
X136825714Y-115674143D01*
X136754286Y-115602714D01*
X136682857Y-115459857D01*
X136682857Y-115031286D01*
X136754286Y-114888429D01*
X136825714Y-114817000D01*
X136968572Y-114745571D01*
X137254286Y-114745571D01*
X137397143Y-114817000D01*
D12*
X123952143Y-106565000D02*
X123809286Y-106493571D01*
X123595000Y-106493571D01*
X123380715Y-106565000D01*
X123237857Y-106707857D01*
X123166429Y-106850714D01*
X123095000Y-107136429D01*
X123095000Y-107350714D01*
X123166429Y-107636429D01*
X123237857Y-107779286D01*
X123380715Y-107922143D01*
X123595000Y-107993571D01*
X123737857Y-107993571D01*
X123952143Y-107922143D01*
X124023572Y-107850714D01*
X124023572Y-107350714D01*
X123737857Y-107350714D01*
X124666429Y-107993571D02*
X124666429Y-106493571D01*
X125523572Y-107993571D01*
X125523572Y-106493571D01*
X126237858Y-107993571D02*
X126237858Y-106493571D01*
X126595001Y-106493571D01*
X126809286Y-106565000D01*
X126952144Y-106707857D01*
X127023572Y-106850714D01*
X127095001Y-107136429D01*
X127095001Y-107350714D01*
X127023572Y-107636429D01*
X126952144Y-107779286D01*
X126809286Y-107922143D01*
X126595001Y-107993571D01*
X126237858Y-107993571D01*
X123833143Y-103953571D02*
X124333143Y-105453571D01*
X124833143Y-103953571D01*
X125333143Y-105453571D02*
X125333143Y-103953571D01*
X126047429Y-105453571D02*
X126047429Y-103953571D01*
X126904572Y-105453571D01*
X126904572Y-103953571D01*
X126063429Y-102913571D02*
X126063429Y-101413571D01*
X126063429Y-102127857D02*
X126920572Y-102127857D01*
X126920572Y-102913571D02*
X126920572Y-101413571D01*
X126099143Y-100373571D02*
X126099143Y-98873571D01*
X126456286Y-98873571D01*
X126670571Y-98945000D01*
X126813429Y-99087857D01*
X126884857Y-99230714D01*
X126956286Y-99516429D01*
X126956286Y-99730714D01*
X126884857Y-100016429D01*
X126813429Y-100159286D01*
X126670571Y-100302143D01*
X126456286Y-100373571D01*
X126099143Y-100373571D01*
X126956286Y-97833571D02*
X126242000Y-97833571D01*
X126242000Y-96333571D01*
X126063429Y-93793571D02*
X126063429Y-95007857D01*
X126134857Y-95150714D01*
X126206286Y-95222143D01*
X126349143Y-95293571D01*
X126634857Y-95293571D01*
X126777715Y-95222143D01*
X126849143Y-95150714D01*
X126920572Y-95007857D01*
X126920572Y-93793571D01*
X126956286Y-92753571D02*
X126456286Y-92039286D01*
X126099143Y-92753571D02*
X126099143Y-91253571D01*
X126670571Y-91253571D01*
X126813429Y-91325000D01*
X126884857Y-91396429D01*
X126956286Y-91539286D01*
X126956286Y-91753571D01*
X126884857Y-91896429D01*
X126813429Y-91967857D01*
X126670571Y-92039286D01*
X126099143Y-92039286D01*
X125992000Y-88713571D02*
X126492000Y-90213571D01*
X126992000Y-88713571D01*
D11*
X131175144Y-107136429D02*
X131032286Y-107065000D01*
X130960858Y-106993571D01*
X130889429Y-106850714D01*
X130889429Y-106779286D01*
X130960858Y-106636429D01*
X131032286Y-106565000D01*
X131175144Y-106493571D01*
X131460858Y-106493571D01*
X131603715Y-106565000D01*
X131675144Y-106636429D01*
X131746572Y-106779286D01*
X131746572Y-106850714D01*
X131675144Y-106993571D01*
X131603715Y-107065000D01*
X131460858Y-107136429D01*
X131175144Y-107136429D01*
X131032286Y-107207857D01*
X130960858Y-107279286D01*
X130889429Y-107422143D01*
X130889429Y-107707857D01*
X130960858Y-107850714D01*
X131032286Y-107922143D01*
X131175144Y-107993571D01*
X131460858Y-107993571D01*
X131603715Y-107922143D01*
X131675144Y-107850714D01*
X131746572Y-107707857D01*
X131746572Y-107422143D01*
X131675144Y-107279286D01*
X131603715Y-107207857D01*
X131460858Y-107136429D01*
X131746572Y-90213571D02*
X130889429Y-90213571D01*
X131318001Y-90213571D02*
X131318001Y-88713571D01*
X131175144Y-88927857D01*
X131032286Y-89070714D01*
X130889429Y-89142143D01*
D13*
X183388000Y-81788000D02*
X185928000Y-84328000D01*
X183388000Y-70612000D02*
X183388000Y-81788000D01*
X181864000Y-69088000D02*
X183388000Y-70612000D01*
X117348000Y-69088000D02*
X181864000Y-69088000D01*
X117348000Y-122428000D02*
X117348000Y-69088000D01*
X183388000Y-122428000D02*
X117348000Y-122428000D01*
X183388000Y-119888000D02*
X183388000Y-122428000D01*
X185928000Y-117348000D02*
X183388000Y-119888000D01*
X185928000Y-84328000D02*
X185928000Y-117348000D01*
X162345000Y-114645000D02*
X156345000Y-114645000D01*
X156345000Y-110145000D02*
X162345000Y-110145000D01*
X156345000Y-103795000D02*
X162345000Y-103795000D01*
X162345000Y-108295000D02*
X156345000Y-108295000D01*
X145125000Y-106688000D02*
X145125000Y-112688000D01*
X140625000Y-112688000D02*
X140625000Y-106688000D01*
X145125000Y-96655000D02*
X145125000Y-102655000D01*
X140625000Y-102655000D02*
X140625000Y-96655000D01*
X133005000Y-88130000D02*
X133005000Y-82130000D01*
X137505000Y-82130000D02*
X137505000Y-88130000D01*
X140625000Y-81399000D02*
X140625000Y-75399000D01*
X145125000Y-75399000D02*
X145125000Y-81399000D01*
X152038010Y-95602305D02*
G75*
G03X151335000Y-96090000I996990J-2187695D01*
G01*
X152038010Y-99977695D02*
G75*
G02X151335000Y-99490000I996990J2187695D01*
G01*
X151335000Y-96090000D02*
X151335000Y-99490000D01*
X154028127Y-95605121D02*
G75*
G02X155435000Y-97790000I-993127J-2184879D01*
G01*
X154028127Y-99974879D02*
G75*
G03X155435000Y-97790000I-993127J2184879D01*
G01*
X159658010Y-95602305D02*
G75*
G03X158955000Y-96090000I996990J-2187695D01*
G01*
X159658010Y-99977695D02*
G75*
G02X158955000Y-99490000I996990J2187695D01*
G01*
X158955000Y-96090000D02*
X158955000Y-99490000D01*
X161648127Y-95605121D02*
G75*
G02X163055000Y-97790000I-993127J-2184879D01*
G01*
X161648127Y-99974879D02*
G75*
G03X163055000Y-97790000I-993127J2184879D01*
G01*
X167278010Y-95602305D02*
G75*
G03X166575000Y-96090000I996990J-2187695D01*
G01*
X167278010Y-99977695D02*
G75*
G02X166575000Y-99490000I996990J2187695D01*
G01*
X166575000Y-96090000D02*
X166575000Y-99490000D01*
X169268127Y-95605121D02*
G75*
G02X170675000Y-97790000I-993127J-2184879D01*
G01*
X169268127Y-99974879D02*
G75*
G03X170675000Y-97790000I-993127J2184879D01*
G01*
X174898010Y-95602305D02*
G75*
G03X174195000Y-96090000I996990J-2187695D01*
G01*
X174898010Y-99977695D02*
G75*
G02X174195000Y-99490000I996990J2187695D01*
G01*
X174195000Y-96090000D02*
X174195000Y-99490000D01*
X176888127Y-95605121D02*
G75*
G02X178295000Y-97790000I-993127J-2184879D01*
G01*
X176888127Y-99974879D02*
G75*
G03X178295000Y-97790000I-993127J2184879D01*
G01*
X173355000Y-108585000D02*
X173355000Y-113665000D01*
X173355000Y-113665000D02*
X170815000Y-113665000D01*
X170815000Y-113665000D02*
X170815000Y-108585000D01*
X170815000Y-108585000D02*
X173355000Y-108585000D01*
X172085000Y-108585000D02*
X172085000Y-107315000D01*
X172085000Y-113665000D02*
X172085000Y-114935000D01*
X169545000Y-108585000D02*
X169545000Y-113665000D01*
X169545000Y-113665000D02*
X167005000Y-113665000D01*
X167005000Y-113665000D02*
X167005000Y-108585000D01*
X167005000Y-108585000D02*
X169545000Y-108585000D01*
X168275000Y-108585000D02*
X168275000Y-107315000D01*
X168275000Y-113665000D02*
X168275000Y-114935000D01*
X156845000Y-84455000D02*
X156845000Y-79375000D01*
X156845000Y-79375000D02*
X159385000Y-79375000D01*
X159385000Y-79375000D02*
X159385000Y-84455000D01*
X159385000Y-84455000D02*
X156845000Y-84455000D01*
X158115000Y-84455000D02*
X158115000Y-85725000D01*
X158115000Y-79375000D02*
X158115000Y-78105000D01*
X161925000Y-84455000D02*
X161925000Y-79375000D01*
X161925000Y-79375000D02*
X164465000Y-79375000D01*
X164465000Y-79375000D02*
X164465000Y-84455000D01*
X164465000Y-84455000D02*
X161925000Y-84455000D01*
X163195000Y-84455000D02*
X163195000Y-85725000D01*
X163195000Y-79375000D02*
X163195000Y-78105000D01*
X167005000Y-84455000D02*
X167005000Y-79375000D01*
X167005000Y-79375000D02*
X169545000Y-79375000D01*
X169545000Y-79375000D02*
X169545000Y-84455000D01*
X169545000Y-84455000D02*
X167005000Y-84455000D01*
X168275000Y-84455000D02*
X168275000Y-85725000D01*
X168275000Y-79375000D02*
X168275000Y-78105000D01*
X172085000Y-84455000D02*
X172085000Y-79375000D01*
X172085000Y-79375000D02*
X174625000Y-79375000D01*
X174625000Y-79375000D02*
X174625000Y-84455000D01*
X174625000Y-84455000D02*
X172085000Y-84455000D01*
X173355000Y-84455000D02*
X173355000Y-85725000D01*
X173355000Y-79375000D02*
X173355000Y-78105000D01*
X147066000Y-104648000D02*
X147066000Y-99568000D01*
X147066000Y-99568000D02*
X149606000Y-99568000D01*
X149606000Y-99568000D02*
X149606000Y-104648000D01*
X149606000Y-104648000D02*
X147066000Y-104648000D01*
X148336000Y-104648000D02*
X148336000Y-105918000D01*
X148336000Y-99568000D02*
X148336000Y-98298000D01*
X153035000Y-90297000D02*
X158115000Y-90297000D01*
X158115000Y-90297000D02*
X158115000Y-92837000D01*
X158115000Y-92837000D02*
X153035000Y-92837000D01*
X153035000Y-92837000D02*
X153035000Y-90297000D01*
X153035000Y-91567000D02*
X151765000Y-91567000D01*
X158115000Y-91567000D02*
X159385000Y-91567000D01*
X145415000Y-86360000D02*
X150495000Y-86360000D01*
X150495000Y-86360000D02*
X150495000Y-88900000D01*
X150495000Y-88900000D02*
X145415000Y-88900000D01*
X145415000Y-88900000D02*
X145415000Y-86360000D01*
X145415000Y-87630000D02*
X144145000Y-87630000D01*
X150495000Y-87630000D02*
X151765000Y-87630000D01*
X145415000Y-83185000D02*
X150495000Y-83185000D01*
X150495000Y-83185000D02*
X150495000Y-85725000D01*
X150495000Y-85725000D02*
X145415000Y-85725000D01*
X145415000Y-85725000D02*
X145415000Y-83185000D01*
X145415000Y-84455000D02*
X144145000Y-84455000D01*
X150495000Y-84455000D02*
X151765000Y-84455000D01*
D14*
X130175000Y-104140000D02*
X130175000Y-105410000D01*
X130175000Y-105410000D02*
X129540000Y-106045000D01*
X128270000Y-106045000D02*
X127635000Y-105410000D01*
X129540000Y-100965000D02*
X130175000Y-101600000D01*
X130175000Y-101600000D02*
X130175000Y-102870000D01*
X130175000Y-102870000D02*
X129540000Y-103505000D01*
X128270000Y-103505000D02*
X127635000Y-102870000D01*
X127635000Y-102870000D02*
X127635000Y-101600000D01*
X127635000Y-101600000D02*
X128270000Y-100965000D01*
X130175000Y-104140000D02*
X129540000Y-103505000D01*
X128270000Y-103505000D02*
X127635000Y-104140000D01*
X127635000Y-105410000D02*
X127635000Y-104140000D01*
X130175000Y-96520000D02*
X130175000Y-97790000D01*
X130175000Y-97790000D02*
X129540000Y-98425000D01*
X128270000Y-98425000D02*
X127635000Y-97790000D01*
X129540000Y-98425000D02*
X130175000Y-99060000D01*
X130175000Y-99060000D02*
X130175000Y-100330000D01*
X130175000Y-100330000D02*
X129540000Y-100965000D01*
X128270000Y-100965000D02*
X127635000Y-100330000D01*
X127635000Y-100330000D02*
X127635000Y-99060000D01*
X127635000Y-99060000D02*
X128270000Y-98425000D01*
X129540000Y-93345000D02*
X130175000Y-93980000D01*
X130175000Y-93980000D02*
X130175000Y-95250000D01*
X130175000Y-95250000D02*
X129540000Y-95885000D01*
X128270000Y-95885000D02*
X127635000Y-95250000D01*
X127635000Y-95250000D02*
X127635000Y-93980000D01*
X127635000Y-93980000D02*
X128270000Y-93345000D01*
X130175000Y-96520000D02*
X129540000Y-95885000D01*
X128270000Y-95885000D02*
X127635000Y-96520000D01*
X127635000Y-97790000D02*
X127635000Y-96520000D01*
X130175000Y-88900000D02*
X130175000Y-90170000D01*
X130175000Y-90170000D02*
X129540000Y-90805000D01*
X128270000Y-90805000D02*
X127635000Y-90170000D01*
X129540000Y-90805000D02*
X130175000Y-91440000D01*
X130175000Y-91440000D02*
X130175000Y-92710000D01*
X130175000Y-92710000D02*
X129540000Y-93345000D01*
X128270000Y-93345000D02*
X127635000Y-92710000D01*
X127635000Y-92710000D02*
X127635000Y-91440000D01*
X127635000Y-91440000D02*
X128270000Y-90805000D01*
X129540000Y-88265000D02*
X128270000Y-88265000D01*
X130175000Y-88900000D02*
X129540000Y-88265000D01*
X128270000Y-88265000D02*
X127635000Y-88900000D01*
X127635000Y-90170000D02*
X127635000Y-88900000D01*
X130175000Y-106680000D02*
X130175000Y-107950000D01*
X130175000Y-107950000D02*
X129540000Y-108585000D01*
X129540000Y-108585000D02*
X128270000Y-108585000D01*
X128270000Y-108585000D02*
X127635000Y-107950000D01*
X130175000Y-106680000D02*
X129540000Y-106045000D01*
X128270000Y-106045000D02*
X127635000Y-106680000D01*
X127635000Y-107950000D02*
X127635000Y-106680000D01*
D15*
G36*
X124851160Y-77175360D02*
X124876560Y-77160120D01*
X124934980Y-77124560D01*
X125018800Y-77068680D01*
X125117860Y-77002640D01*
X125216920Y-76936600D01*
X125298200Y-76883260D01*
X125354080Y-76845160D01*
X125379480Y-76832460D01*
X125392180Y-76837540D01*
X125437900Y-76860400D01*
X125506480Y-76895960D01*
X125547120Y-76916280D01*
X125608080Y-76941680D01*
X125641100Y-76949300D01*
X125646180Y-76939140D01*
X125669040Y-76890880D01*
X125704600Y-76809600D01*
X125750320Y-76700380D01*
X125806200Y-76573380D01*
X125862080Y-76438760D01*
X125920500Y-76299060D01*
X125976380Y-76164440D01*
X126024640Y-76045060D01*
X126065280Y-75948540D01*
X126090680Y-75879960D01*
X126100840Y-75852020D01*
X126098300Y-75844400D01*
X126065280Y-75813920D01*
X126011940Y-75773280D01*
X125892560Y-75676760D01*
X125775720Y-75531980D01*
X125704600Y-75366880D01*
X125681740Y-75181460D01*
X125702060Y-75011280D01*
X125768100Y-74848720D01*
X125882400Y-74701400D01*
X126022100Y-74592180D01*
X126184660Y-74523600D01*
X126365000Y-74500740D01*
X126537720Y-74521060D01*
X126705360Y-74587100D01*
X126852680Y-74698860D01*
X126916180Y-74769980D01*
X127002540Y-74919840D01*
X127050800Y-75077320D01*
X127055880Y-75117960D01*
X127048260Y-75293220D01*
X126997460Y-75463400D01*
X126903480Y-75613260D01*
X126773940Y-75737720D01*
X126758700Y-75747880D01*
X126700280Y-75793600D01*
X126659640Y-75824080D01*
X126629160Y-75849480D01*
X126852680Y-76387960D01*
X126888240Y-76471780D01*
X126949200Y-76619100D01*
X127002540Y-76746100D01*
X127045720Y-76847700D01*
X127076200Y-76913740D01*
X127088900Y-76941680D01*
X127088900Y-76944220D01*
X127109220Y-76946760D01*
X127149860Y-76931520D01*
X127226060Y-76895960D01*
X127274320Y-76870560D01*
X127332740Y-76842620D01*
X127358140Y-76832460D01*
X127381000Y-76845160D01*
X127434340Y-76880720D01*
X127515620Y-76934060D01*
X127612140Y-76997560D01*
X127703580Y-77061060D01*
X127787400Y-77116940D01*
X127848360Y-77155040D01*
X127878840Y-77172820D01*
X127883920Y-77172820D01*
X127909320Y-77157580D01*
X127957580Y-77116940D01*
X128031240Y-77048360D01*
X128135380Y-76944220D01*
X128150620Y-76928980D01*
X128236980Y-76842620D01*
X128305560Y-76768960D01*
X128351280Y-76718160D01*
X128369060Y-76695300D01*
X128369060Y-76695300D01*
X128353820Y-76664820D01*
X128315720Y-76603860D01*
X128259840Y-76517500D01*
X128191260Y-76418440D01*
X128013460Y-76159360D01*
X128109980Y-75915520D01*
X128140460Y-75839320D01*
X128178560Y-75750420D01*
X128206500Y-75684380D01*
X128221740Y-75656440D01*
X128247140Y-75646280D01*
X128315720Y-75631040D01*
X128412240Y-75610720D01*
X128526540Y-75590400D01*
X128638300Y-75570080D01*
X128737360Y-75549760D01*
X128808480Y-75537060D01*
X128841500Y-75529440D01*
X128849120Y-75524360D01*
X128856740Y-75509120D01*
X128859280Y-75476100D01*
X128861820Y-75415140D01*
X128864360Y-75321160D01*
X128864360Y-75181460D01*
X128864360Y-75166220D01*
X128861820Y-75036680D01*
X128859280Y-74930000D01*
X128856740Y-74863960D01*
X128851660Y-74836020D01*
X128851660Y-74836020D01*
X128821180Y-74828400D01*
X128750060Y-74813160D01*
X128651000Y-74795380D01*
X128531620Y-74772520D01*
X128524000Y-74769980D01*
X128407160Y-74747120D01*
X128308100Y-74726800D01*
X128236980Y-74711560D01*
X128209040Y-74701400D01*
X128201420Y-74693780D01*
X128178560Y-74648060D01*
X128145540Y-74574400D01*
X128104900Y-74485500D01*
X128066800Y-74391520D01*
X128033780Y-74307700D01*
X128010920Y-74246740D01*
X128003300Y-74218800D01*
X128005840Y-74216260D01*
X128023620Y-74188320D01*
X128064260Y-74127360D01*
X128120140Y-74043540D01*
X128188720Y-73941940D01*
X128193800Y-73934320D01*
X128262380Y-73835260D01*
X128318260Y-73748900D01*
X128353820Y-73690480D01*
X128369060Y-73662540D01*
X128369060Y-73660000D01*
X128346200Y-73629520D01*
X128295400Y-73573640D01*
X128221740Y-73497440D01*
X128135380Y-73408540D01*
X128107440Y-73383140D01*
X128008380Y-73286620D01*
X127942340Y-73225660D01*
X127899160Y-73192640D01*
X127878840Y-73185020D01*
X127878840Y-73185020D01*
X127848360Y-73202800D01*
X127784860Y-73243440D01*
X127701040Y-73301860D01*
X127599440Y-73370440D01*
X127591820Y-73375520D01*
X127492760Y-73444100D01*
X127408940Y-73499980D01*
X127350520Y-73540620D01*
X127322580Y-73555860D01*
X127320040Y-73555860D01*
X127279400Y-73543160D01*
X127208280Y-73517760D01*
X127119380Y-73484740D01*
X127027940Y-73446640D01*
X126944120Y-73411080D01*
X126880620Y-73383140D01*
X126850140Y-73365360D01*
X126850140Y-73365360D01*
X126839980Y-73329800D01*
X126822200Y-73253600D01*
X126801880Y-73152000D01*
X126776480Y-73030080D01*
X126773940Y-73009760D01*
X126751080Y-72890380D01*
X126733300Y-72791320D01*
X126718060Y-72722740D01*
X126710440Y-72694800D01*
X126695200Y-72692260D01*
X126636780Y-72687180D01*
X126547880Y-72684640D01*
X126438660Y-72684640D01*
X126326900Y-72684640D01*
X126217680Y-72687180D01*
X126123700Y-72689720D01*
X126055120Y-72694800D01*
X126027180Y-72699880D01*
X126027180Y-72702420D01*
X126017020Y-72740520D01*
X125999240Y-72814180D01*
X125978920Y-72918320D01*
X125956060Y-73040240D01*
X125950980Y-73063100D01*
X125928120Y-73179940D01*
X125907800Y-73279000D01*
X125895100Y-73345040D01*
X125887480Y-73372980D01*
X125874780Y-73378060D01*
X125826520Y-73398380D01*
X125747780Y-73431400D01*
X125648720Y-73472040D01*
X125420120Y-73563480D01*
X125138180Y-73372980D01*
X125112780Y-73355200D01*
X125011180Y-73286620D01*
X124929900Y-73230740D01*
X124871480Y-73192640D01*
X124848620Y-73179940D01*
X124846080Y-73179940D01*
X124818140Y-73205340D01*
X124762260Y-73258680D01*
X124686060Y-73332340D01*
X124597160Y-73418700D01*
X124533660Y-73484740D01*
X124454920Y-73563480D01*
X124406660Y-73616820D01*
X124378720Y-73649840D01*
X124371100Y-73670160D01*
X124373640Y-73685400D01*
X124391420Y-73713340D01*
X124432060Y-73774300D01*
X124490480Y-73860660D01*
X124559060Y-73959720D01*
X124614940Y-74043540D01*
X124675900Y-74137520D01*
X124714000Y-74203560D01*
X124729240Y-74236580D01*
X124724160Y-74249280D01*
X124706380Y-74305160D01*
X124670820Y-74388980D01*
X124630180Y-74488040D01*
X124531120Y-74709020D01*
X124386340Y-74736960D01*
X124297440Y-74754740D01*
X124175520Y-74777600D01*
X124056140Y-74800460D01*
X123873260Y-74836020D01*
X123865640Y-75511660D01*
X123893580Y-75524360D01*
X123921520Y-75531980D01*
X123990100Y-75547220D01*
X124086620Y-75567540D01*
X124203460Y-75587860D01*
X124299980Y-75605640D01*
X124399040Y-75625960D01*
X124470160Y-75638660D01*
X124500640Y-75646280D01*
X124510800Y-75656440D01*
X124533660Y-75704700D01*
X124569220Y-75780900D01*
X124609860Y-75872340D01*
X124647960Y-75966320D01*
X124683520Y-76055220D01*
X124706380Y-76121260D01*
X124716540Y-76154280D01*
X124703840Y-76182220D01*
X124665740Y-76240640D01*
X124612400Y-76321920D01*
X124543820Y-76420980D01*
X124477780Y-76517500D01*
X124419360Y-76601320D01*
X124381260Y-76662280D01*
X124363480Y-76690220D01*
X124373640Y-76708000D01*
X124411740Y-76756260D01*
X124485400Y-76832460D01*
X124597160Y-76941680D01*
X124614940Y-76959460D01*
X124701300Y-77043280D01*
X124774960Y-77111860D01*
X124828300Y-77157580D01*
X124851160Y-77175360D01*
X124851160Y-77175360D01*
G37*
X124851160Y-77175360D02*
X124876560Y-77160120D01*
X124934980Y-77124560D01*
X125018800Y-77068680D01*
X125117860Y-77002640D01*
X125216920Y-76936600D01*
X125298200Y-76883260D01*
X125354080Y-76845160D01*
X125379480Y-76832460D01*
X125392180Y-76837540D01*
X125437900Y-76860400D01*
X125506480Y-76895960D01*
X125547120Y-76916280D01*
X125608080Y-76941680D01*
X125641100Y-76949300D01*
X125646180Y-76939140D01*
X125669040Y-76890880D01*
X125704600Y-76809600D01*
X125750320Y-76700380D01*
X125806200Y-76573380D01*
X125862080Y-76438760D01*
X125920500Y-76299060D01*
X125976380Y-76164440D01*
X126024640Y-76045060D01*
X126065280Y-75948540D01*
X126090680Y-75879960D01*
X126100840Y-75852020D01*
X126098300Y-75844400D01*
X126065280Y-75813920D01*
X126011940Y-75773280D01*
X125892560Y-75676760D01*
X125775720Y-75531980D01*
X125704600Y-75366880D01*
X125681740Y-75181460D01*
X125702060Y-75011280D01*
X125768100Y-74848720D01*
X125882400Y-74701400D01*
X126022100Y-74592180D01*
X126184660Y-74523600D01*
X126365000Y-74500740D01*
X126537720Y-74521060D01*
X126705360Y-74587100D01*
X126852680Y-74698860D01*
X126916180Y-74769980D01*
X127002540Y-74919840D01*
X127050800Y-75077320D01*
X127055880Y-75117960D01*
X127048260Y-75293220D01*
X126997460Y-75463400D01*
X126903480Y-75613260D01*
X126773940Y-75737720D01*
X126758700Y-75747880D01*
X126700280Y-75793600D01*
X126659640Y-75824080D01*
X126629160Y-75849480D01*
X126852680Y-76387960D01*
X126888240Y-76471780D01*
X126949200Y-76619100D01*
X127002540Y-76746100D01*
X127045720Y-76847700D01*
X127076200Y-76913740D01*
X127088900Y-76941680D01*
X127088900Y-76944220D01*
X127109220Y-76946760D01*
X127149860Y-76931520D01*
X127226060Y-76895960D01*
X127274320Y-76870560D01*
X127332740Y-76842620D01*
X127358140Y-76832460D01*
X127381000Y-76845160D01*
X127434340Y-76880720D01*
X127515620Y-76934060D01*
X127612140Y-76997560D01*
X127703580Y-77061060D01*
X127787400Y-77116940D01*
X127848360Y-77155040D01*
X127878840Y-77172820D01*
X127883920Y-77172820D01*
X127909320Y-77157580D01*
X127957580Y-77116940D01*
X128031240Y-77048360D01*
X128135380Y-76944220D01*
X128150620Y-76928980D01*
X128236980Y-76842620D01*
X128305560Y-76768960D01*
X128351280Y-76718160D01*
X128369060Y-76695300D01*
X128369060Y-76695300D01*
X128353820Y-76664820D01*
X128315720Y-76603860D01*
X128259840Y-76517500D01*
X128191260Y-76418440D01*
X128013460Y-76159360D01*
X128109980Y-75915520D01*
X128140460Y-75839320D01*
X128178560Y-75750420D01*
X128206500Y-75684380D01*
X128221740Y-75656440D01*
X128247140Y-75646280D01*
X128315720Y-75631040D01*
X128412240Y-75610720D01*
X128526540Y-75590400D01*
X128638300Y-75570080D01*
X128737360Y-75549760D01*
X128808480Y-75537060D01*
X128841500Y-75529440D01*
X128849120Y-75524360D01*
X128856740Y-75509120D01*
X128859280Y-75476100D01*
X128861820Y-75415140D01*
X128864360Y-75321160D01*
X128864360Y-75181460D01*
X128864360Y-75166220D01*
X128861820Y-75036680D01*
X128859280Y-74930000D01*
X128856740Y-74863960D01*
X128851660Y-74836020D01*
X128851660Y-74836020D01*
X128821180Y-74828400D01*
X128750060Y-74813160D01*
X128651000Y-74795380D01*
X128531620Y-74772520D01*
X128524000Y-74769980D01*
X128407160Y-74747120D01*
X128308100Y-74726800D01*
X128236980Y-74711560D01*
X128209040Y-74701400D01*
X128201420Y-74693780D01*
X128178560Y-74648060D01*
X128145540Y-74574400D01*
X128104900Y-74485500D01*
X128066800Y-74391520D01*
X128033780Y-74307700D01*
X128010920Y-74246740D01*
X128003300Y-74218800D01*
X128005840Y-74216260D01*
X128023620Y-74188320D01*
X128064260Y-74127360D01*
X128120140Y-74043540D01*
X128188720Y-73941940D01*
X128193800Y-73934320D01*
X128262380Y-73835260D01*
X128318260Y-73748900D01*
X128353820Y-73690480D01*
X128369060Y-73662540D01*
X128369060Y-73660000D01*
X128346200Y-73629520D01*
X128295400Y-73573640D01*
X128221740Y-73497440D01*
X128135380Y-73408540D01*
X128107440Y-73383140D01*
X128008380Y-73286620D01*
X127942340Y-73225660D01*
X127899160Y-73192640D01*
X127878840Y-73185020D01*
X127878840Y-73185020D01*
X127848360Y-73202800D01*
X127784860Y-73243440D01*
X127701040Y-73301860D01*
X127599440Y-73370440D01*
X127591820Y-73375520D01*
X127492760Y-73444100D01*
X127408940Y-73499980D01*
X127350520Y-73540620D01*
X127322580Y-73555860D01*
X127320040Y-73555860D01*
X127279400Y-73543160D01*
X127208280Y-73517760D01*
X127119380Y-73484740D01*
X127027940Y-73446640D01*
X126944120Y-73411080D01*
X126880620Y-73383140D01*
X126850140Y-73365360D01*
X126850140Y-73365360D01*
X126839980Y-73329800D01*
X126822200Y-73253600D01*
X126801880Y-73152000D01*
X126776480Y-73030080D01*
X126773940Y-73009760D01*
X126751080Y-72890380D01*
X126733300Y-72791320D01*
X126718060Y-72722740D01*
X126710440Y-72694800D01*
X126695200Y-72692260D01*
X126636780Y-72687180D01*
X126547880Y-72684640D01*
X126438660Y-72684640D01*
X126326900Y-72684640D01*
X126217680Y-72687180D01*
X126123700Y-72689720D01*
X126055120Y-72694800D01*
X126027180Y-72699880D01*
X126027180Y-72702420D01*
X126017020Y-72740520D01*
X125999240Y-72814180D01*
X125978920Y-72918320D01*
X125956060Y-73040240D01*
X125950980Y-73063100D01*
X125928120Y-73179940D01*
X125907800Y-73279000D01*
X125895100Y-73345040D01*
X125887480Y-73372980D01*
X125874780Y-73378060D01*
X125826520Y-73398380D01*
X125747780Y-73431400D01*
X125648720Y-73472040D01*
X125420120Y-73563480D01*
X125138180Y-73372980D01*
X125112780Y-73355200D01*
X125011180Y-73286620D01*
X124929900Y-73230740D01*
X124871480Y-73192640D01*
X124848620Y-73179940D01*
X124846080Y-73179940D01*
X124818140Y-73205340D01*
X124762260Y-73258680D01*
X124686060Y-73332340D01*
X124597160Y-73418700D01*
X124533660Y-73484740D01*
X124454920Y-73563480D01*
X124406660Y-73616820D01*
X124378720Y-73649840D01*
X124371100Y-73670160D01*
X124373640Y-73685400D01*
X124391420Y-73713340D01*
X124432060Y-73774300D01*
X124490480Y-73860660D01*
X124559060Y-73959720D01*
X124614940Y-74043540D01*
X124675900Y-74137520D01*
X124714000Y-74203560D01*
X124729240Y-74236580D01*
X124724160Y-74249280D01*
X124706380Y-74305160D01*
X124670820Y-74388980D01*
X124630180Y-74488040D01*
X124531120Y-74709020D01*
X124386340Y-74736960D01*
X124297440Y-74754740D01*
X124175520Y-74777600D01*
X124056140Y-74800460D01*
X123873260Y-74836020D01*
X123865640Y-75511660D01*
X123893580Y-75524360D01*
X123921520Y-75531980D01*
X123990100Y-75547220D01*
X124086620Y-75567540D01*
X124203460Y-75587860D01*
X124299980Y-75605640D01*
X124399040Y-75625960D01*
X124470160Y-75638660D01*
X124500640Y-75646280D01*
X124510800Y-75656440D01*
X124533660Y-75704700D01*
X124569220Y-75780900D01*
X124609860Y-75872340D01*
X124647960Y-75966320D01*
X124683520Y-76055220D01*
X124706380Y-76121260D01*
X124716540Y-76154280D01*
X124703840Y-76182220D01*
X124665740Y-76240640D01*
X124612400Y-76321920D01*
X124543820Y-76420980D01*
X124477780Y-76517500D01*
X124419360Y-76601320D01*
X124381260Y-76662280D01*
X124363480Y-76690220D01*
X124373640Y-76708000D01*
X124411740Y-76756260D01*
X124485400Y-76832460D01*
X124597160Y-76941680D01*
X124614940Y-76959460D01*
X124701300Y-77043280D01*
X124774960Y-77111860D01*
X124828300Y-77157580D01*
X124851160Y-77175360D01*
M02*
