M48
;DRILL file {KiCad 4.0.5} date Tue Feb 28 17:38:42 2017
;FORMAT={-:-/ absolute / inch / decimal}
FMAT,2
INCH,TZ
T1C0.031
T2C0.035
T3C0.039
T4C0.040
%
G90
G05
M72
T1
X6.025Y-3.75
X6.025Y-3.85
X6.025Y-3.95
X6.325Y-3.75
X6.325Y-3.85
X6.325Y-3.95
X6.625Y-3.75
X6.625Y-3.85
X6.625Y-3.95
X6.925Y-3.75
X6.925Y-3.85
X6.925Y-3.95
T2
X5.325Y-3.2531
X5.325Y-3.45
X5.625Y-2.9881
X5.625Y-3.185
X5.625Y-3.825
X5.625Y-4.0219
X5.625Y-4.22
X5.625Y-4.4169
X6.175Y-4.175
X6.175Y-4.425
X6.3719Y-4.175
X6.3719Y-4.425
T3
X5.625Y-3.325
X5.625Y-3.45
X5.84Y-3.82
X5.84Y-4.22
X5.925Y-3.605
X6.025Y-3.325
X6.025Y-3.45
X6.225Y-3.025
X6.225Y-3.425
X6.325Y-3.605
X6.425Y-3.025
X6.425Y-3.425
X6.625Y-3.025
X6.625Y-3.425
X6.625Y-4.175
X6.625Y-4.575
X6.775Y-4.175
X6.775Y-4.575
X6.825Y-3.025
X6.825Y-3.425
T4
X5.075Y-3.525
X5.075Y-3.625
X5.075Y-3.725
X5.075Y-3.825
X5.075Y-3.925
X5.075Y-4.025
X5.075Y-4.125
X5.075Y-4.225
X5.3615Y-2.825
X5.4615Y-2.825
X5.5615Y-2.825
X5.6615Y-2.825
X5.7215Y-4.725
X5.7615Y-2.825
X5.8215Y-4.725
X5.8615Y-2.825
X5.9215Y-4.725
X5.9615Y-2.825
X6.0215Y-4.725
X6.0615Y-2.825
X6.1215Y-4.725
X6.1615Y-2.825
X6.2215Y-4.725
X6.2615Y-2.825
X6.3215Y-4.725
X6.4215Y-2.825
X6.4215Y-4.725
X6.5215Y-2.825
X6.6215Y-2.825
X6.6215Y-4.725
X6.7215Y-2.825
X6.7215Y-4.725
X6.8215Y-2.825
X6.8215Y-4.725
X6.9215Y-2.825
X6.9215Y-4.725
X7.0215Y-2.825
X7.0215Y-4.725
X7.1215Y-2.825
X7.1215Y-3.625
X7.1215Y-3.725
X7.1215Y-3.825
X7.1215Y-4.725
X7.2215Y-3.625
X7.2215Y-3.725
X7.2215Y-3.825
T0
M30
