M48
;DRILL file {KiCad 4.0.6} date Thu May  4 10:17:19 2017
;FORMAT={-:-/ absolute / metric / decimal}
FMAT,2
METRIC,TZ
T1C0.800
T2C0.900
T3C1.001
T4C1.016
%
G90
G05
M71
T1
X153.035Y-95.25
X153.035Y-97.79
X153.035Y-100.33
X160.655Y-95.25
X160.655Y-97.79
X160.655Y-100.33
X168.275Y-95.25
X168.275Y-97.79
X168.275Y-100.33
X175.895Y-95.25
X175.895Y-97.79
X175.895Y-100.33
T2
X137.16Y-82.63
X137.16Y-87.63
X142.875Y-75.899
X142.875Y-80.899
X142.875Y-97.155
X142.875Y-102.155
X142.875Y-107.188
X142.875Y-112.188
X156.845Y-106.045
X156.845Y-112.395
X161.845Y-106.045
X161.845Y-112.395
T3
X142.875Y-84.455
X142.875Y-87.63
X148.336Y-97.028
X148.336Y-107.188
X150.495Y-91.567
X153.035Y-84.455
X153.035Y-87.63
X158.115Y-76.835
X158.115Y-86.995
X160.655Y-91.567
X163.195Y-76.835
X163.195Y-86.995
X168.275Y-76.835
X168.275Y-86.995
X168.275Y-106.045
X168.275Y-116.205
X172.085Y-106.045
X172.085Y-116.205
X173.355Y-76.835
X173.355Y-86.995
T4
X128.905Y-89.535
X128.905Y-92.075
X128.905Y-94.615
X128.905Y-97.155
X128.905Y-99.695
X128.905Y-102.235
X128.905Y-104.775
X128.905Y-107.315
X136.182Y-71.755
X138.722Y-71.755
X141.262Y-71.755
X143.802Y-71.755
X145.326Y-120.015
X146.342Y-71.755
X147.866Y-120.015
X148.882Y-71.755
X150.406Y-120.015
X151.422Y-71.755
X152.946Y-120.015
X153.962Y-71.755
X155.486Y-120.015
X156.502Y-71.755
X158.026Y-120.015
X159.042Y-71.755
X160.566Y-120.015
X163.106Y-71.755
X163.106Y-120.015
X165.646Y-71.755
X168.186Y-71.755
X168.186Y-120.015
X170.726Y-71.755
X170.726Y-120.015
X173.266Y-71.755
X173.266Y-120.015
X175.806Y-71.755
X175.806Y-120.015
X178.346Y-71.755
X178.346Y-120.015
X180.886Y-71.755
X180.886Y-92.075
X180.886Y-94.615
X180.886Y-97.155
X180.886Y-120.015
X183.426Y-92.075
X183.426Y-94.615
X183.426Y-97.155
T0
M30
