G04 #@! TF.FileFunction,Copper,L1,Top,Signal*
%FSLAX46Y46*%
G04 Gerber Fmt 4.6, Leading zero omitted, Abs format (unit mm)*
G04 Created by KiCad (PCBNEW 4.0.6) date Thu May  4 10:17:07 2017*
%MOMM*%
%LPD*%
G01*
G04 APERTURE LIST*
%ADD10C,0.100000*%
%ADD11C,0.150000*%
%ADD12O,1.524000X2.540000*%
%ADD13C,1.524000*%
%ADD14R,1.400000X1.400000*%
%ADD15C,1.400000*%
%ADD16C,1.998980*%
%ADD17O,1.524000X1.524000*%
%ADD18C,0.254000*%
G04 APERTURE END LIST*
D10*
D11*
X183388000Y-81788000D02*
X185928000Y-84328000D01*
X183388000Y-70612000D02*
X183388000Y-81788000D01*
X181864000Y-69088000D02*
X183388000Y-70612000D01*
X117348000Y-69088000D02*
X181864000Y-69088000D01*
X117348000Y-122428000D02*
X117348000Y-69088000D01*
X183388000Y-122428000D02*
X117348000Y-122428000D01*
X183388000Y-119888000D02*
X183388000Y-122428000D01*
X185928000Y-117348000D02*
X183388000Y-119888000D01*
X185928000Y-84328000D02*
X185928000Y-117348000D01*
D12*
X180886100Y-120015000D03*
X178346100Y-120015000D03*
X175806100Y-120015000D03*
X168186100Y-120015000D03*
X170726100Y-120015000D03*
X173266100Y-120015000D03*
X163106100Y-120015000D03*
X160566100Y-120015000D03*
X158026100Y-120015000D03*
X152946100Y-120015000D03*
X150406100Y-120015000D03*
X180886100Y-71755000D03*
X178346100Y-71755000D03*
X175806100Y-71755000D03*
X173266100Y-71755000D03*
X170726100Y-71755000D03*
X168186100Y-71755000D03*
X165646100Y-71755000D03*
X163106100Y-71755000D03*
X159042100Y-71755000D03*
X156502100Y-71755000D03*
X153962100Y-71755000D03*
X151422100Y-71755000D03*
X148882100Y-71755000D03*
X146342100Y-71755000D03*
X143802100Y-71755000D03*
X141262100Y-71755000D03*
X155486100Y-120015000D03*
X138722100Y-71755000D03*
X136182100Y-71755000D03*
X147866100Y-120015000D03*
X145326100Y-120015000D03*
D13*
X180886100Y-92075000D03*
X183426100Y-92075000D03*
X180886100Y-94615000D03*
X183426100Y-94615000D03*
X180886100Y-97155000D03*
X183426100Y-97155000D03*
D14*
X161845000Y-112395000D03*
D15*
X156845000Y-112395000D03*
D14*
X156845000Y-106045000D03*
D15*
X161845000Y-106045000D03*
D14*
X142875000Y-107188000D03*
D15*
X142875000Y-112188000D03*
D14*
X142875000Y-97155000D03*
D15*
X142875000Y-102155000D03*
D14*
X137160000Y-87630000D03*
D15*
X137160000Y-82630000D03*
D14*
X142875000Y-80899000D03*
D15*
X142875000Y-75899000D03*
D13*
X153035000Y-97790000D03*
X153035000Y-100330000D03*
X153035000Y-95250000D03*
X160655000Y-97790000D03*
X160655000Y-100330000D03*
X160655000Y-95250000D03*
X168275000Y-97790000D03*
X168275000Y-100330000D03*
X168275000Y-95250000D03*
X175895000Y-97790000D03*
X175895000Y-100330000D03*
X175895000Y-95250000D03*
D16*
X172085000Y-106045000D03*
X172085000Y-116205000D03*
X168275000Y-106045000D03*
X168275000Y-116205000D03*
X158115000Y-86995000D03*
X158115000Y-76835000D03*
X163195000Y-86995000D03*
X163195000Y-76835000D03*
X168275000Y-86995000D03*
X168275000Y-76835000D03*
X173355000Y-86995000D03*
X173355000Y-76835000D03*
X148336000Y-107188000D03*
X148336000Y-97028000D03*
X150495000Y-91567000D03*
X160655000Y-91567000D03*
X142875000Y-87630000D03*
X153035000Y-87630000D03*
X142875000Y-84455000D03*
X153035000Y-84455000D03*
D17*
X128905000Y-89535000D03*
X128905000Y-92075000D03*
X128905000Y-94615000D03*
X128905000Y-97155000D03*
X128905000Y-99695000D03*
X128905000Y-102235000D03*
X128905000Y-104775000D03*
X128905000Y-107315000D03*
D18*
G36*
X130665106Y-70442229D02*
X130312002Y-71292598D01*
X130311199Y-72213363D01*
X130662818Y-73064346D01*
X131313329Y-73715994D01*
X132163698Y-74069098D01*
X133084463Y-74069901D01*
X133935446Y-73718282D01*
X134587094Y-73067771D01*
X134761737Y-72647185D01*
X134806443Y-72871940D01*
X135129218Y-73355006D01*
X135612284Y-73677781D01*
X136182100Y-73791124D01*
X136751916Y-73677781D01*
X137234982Y-73355006D01*
X137452100Y-73030067D01*
X137669218Y-73355006D01*
X138152284Y-73677781D01*
X138722100Y-73791124D01*
X139291916Y-73677781D01*
X139774982Y-73355006D01*
X139992100Y-73030067D01*
X140209218Y-73355006D01*
X140692284Y-73677781D01*
X141262100Y-73791124D01*
X141831916Y-73677781D01*
X142314982Y-73355006D01*
X142586855Y-72948120D01*
X142904074Y-73340630D01*
X143384823Y-73602260D01*
X143459030Y-73617220D01*
X143675100Y-73494720D01*
X143675100Y-71882000D01*
X143655100Y-71882000D01*
X143655100Y-71628000D01*
X143675100Y-71628000D01*
X143675100Y-70015280D01*
X143459030Y-69892780D01*
X143384823Y-69907740D01*
X142904074Y-70169370D01*
X142586855Y-70561880D01*
X142314982Y-70154994D01*
X141831916Y-69832219D01*
X141659885Y-69798000D01*
X145944315Y-69798000D01*
X145772284Y-69832219D01*
X145289218Y-70154994D01*
X145017345Y-70561880D01*
X144700126Y-70169370D01*
X144219377Y-69907740D01*
X144145170Y-69892780D01*
X143929100Y-70015280D01*
X143929100Y-71628000D01*
X143949100Y-71628000D01*
X143949100Y-71882000D01*
X143929100Y-71882000D01*
X143929100Y-73494720D01*
X144145170Y-73617220D01*
X144219377Y-73602260D01*
X144700126Y-73340630D01*
X145017345Y-72948120D01*
X145289218Y-73355006D01*
X145772284Y-73677781D01*
X146342100Y-73791124D01*
X146911916Y-73677781D01*
X147394982Y-73355006D01*
X147612100Y-73030067D01*
X147829218Y-73355006D01*
X148312284Y-73677781D01*
X148882100Y-73791124D01*
X149451916Y-73677781D01*
X149934982Y-73355006D01*
X150152100Y-73030067D01*
X150369218Y-73355006D01*
X150852284Y-73677781D01*
X151422100Y-73791124D01*
X151991916Y-73677781D01*
X152474982Y-73355006D01*
X152692100Y-73030067D01*
X152909218Y-73355006D01*
X153392284Y-73677781D01*
X153962100Y-73791124D01*
X154531916Y-73677781D01*
X155014982Y-73355006D01*
X155232100Y-73030067D01*
X155449218Y-73355006D01*
X155932284Y-73677781D01*
X156502100Y-73791124D01*
X157071916Y-73677781D01*
X157554982Y-73355006D01*
X157772100Y-73030067D01*
X157989218Y-73355006D01*
X158472284Y-73677781D01*
X159042100Y-73791124D01*
X159611916Y-73677781D01*
X160094982Y-73355006D01*
X160417757Y-72871940D01*
X160531100Y-72302124D01*
X160531100Y-71207876D01*
X160417757Y-70638060D01*
X160094982Y-70154994D01*
X159611916Y-69832219D01*
X159439885Y-69798000D01*
X162708315Y-69798000D01*
X162536284Y-69832219D01*
X162053218Y-70154994D01*
X161730443Y-70638060D01*
X161617100Y-71207876D01*
X161617100Y-72302124D01*
X161730443Y-72871940D01*
X162053218Y-73355006D01*
X162536284Y-73677781D01*
X163106100Y-73791124D01*
X163675916Y-73677781D01*
X164158982Y-73355006D01*
X164376100Y-73030067D01*
X164593218Y-73355006D01*
X165076284Y-73677781D01*
X165646100Y-73791124D01*
X166215916Y-73677781D01*
X166698982Y-73355006D01*
X166916100Y-73030067D01*
X167133218Y-73355006D01*
X167616284Y-73677781D01*
X168186100Y-73791124D01*
X168755916Y-73677781D01*
X169238982Y-73355006D01*
X169456100Y-73030067D01*
X169673218Y-73355006D01*
X170156284Y-73677781D01*
X170726100Y-73791124D01*
X171295916Y-73677781D01*
X171778982Y-73355006D01*
X171996100Y-73030067D01*
X172213218Y-73355006D01*
X172696284Y-73677781D01*
X173266100Y-73791124D01*
X173835916Y-73677781D01*
X174318982Y-73355006D01*
X174536100Y-73030067D01*
X174753218Y-73355006D01*
X175236284Y-73677781D01*
X175806100Y-73791124D01*
X176375916Y-73677781D01*
X176858982Y-73355006D01*
X177076100Y-73030067D01*
X177293218Y-73355006D01*
X177776284Y-73677781D01*
X178346100Y-73791124D01*
X178915916Y-73677781D01*
X179398982Y-73355006D01*
X179616100Y-73030067D01*
X179833218Y-73355006D01*
X180316284Y-73677781D01*
X180886100Y-73791124D01*
X181455916Y-73677781D01*
X181938982Y-73355006D01*
X182261757Y-72871940D01*
X182375100Y-72302124D01*
X182375100Y-71207876D01*
X182261757Y-70638060D01*
X181963306Y-70191398D01*
X182678000Y-70906091D01*
X182678000Y-81788000D01*
X182732046Y-82059705D01*
X182885954Y-82290046D01*
X185218000Y-84622091D01*
X185218000Y-85513972D01*
X184738871Y-85034006D01*
X183888502Y-84680902D01*
X182967737Y-84680099D01*
X182116754Y-85031718D01*
X181465106Y-85682229D01*
X181112002Y-86532598D01*
X181111199Y-87453363D01*
X181462818Y-88304346D01*
X182113329Y-88955994D01*
X182963698Y-89309098D01*
X183884463Y-89309901D01*
X184735446Y-88958282D01*
X185218000Y-88476570D01*
X185218000Y-113453972D01*
X184738871Y-112974006D01*
X183888502Y-112620902D01*
X182967737Y-112620099D01*
X182116754Y-112971718D01*
X181465106Y-113622229D01*
X181112002Y-114472598D01*
X181111199Y-115393363D01*
X181462818Y-116244346D01*
X182113329Y-116895994D01*
X182963698Y-117249098D01*
X183884463Y-117249901D01*
X184735446Y-116898282D01*
X185218000Y-116416570D01*
X185218000Y-117053909D01*
X182885954Y-119385954D01*
X182732046Y-119616295D01*
X182678000Y-119888000D01*
X182678000Y-121718000D01*
X181784841Y-121718000D01*
X181938982Y-121615006D01*
X182261757Y-121131940D01*
X182375100Y-120562124D01*
X182375100Y-119467876D01*
X182261757Y-118898060D01*
X181938982Y-118414994D01*
X181455916Y-118092219D01*
X180886100Y-117978876D01*
X180316284Y-118092219D01*
X179833218Y-118414994D01*
X179616100Y-118739933D01*
X179398982Y-118414994D01*
X178915916Y-118092219D01*
X178346100Y-117978876D01*
X177776284Y-118092219D01*
X177293218Y-118414994D01*
X177076100Y-118739933D01*
X176858982Y-118414994D01*
X176375916Y-118092219D01*
X175806100Y-117978876D01*
X175236284Y-118092219D01*
X174753218Y-118414994D01*
X174536100Y-118739933D01*
X174318982Y-118414994D01*
X173835916Y-118092219D01*
X173266100Y-117978876D01*
X172696284Y-118092219D01*
X172213218Y-118414994D01*
X171996100Y-118739933D01*
X171778982Y-118414994D01*
X171295916Y-118092219D01*
X170726100Y-117978876D01*
X170156284Y-118092219D01*
X169673218Y-118414994D01*
X169456100Y-118739933D01*
X169238982Y-118414994D01*
X168755916Y-118092219D01*
X168186100Y-117978876D01*
X167616284Y-118092219D01*
X167133218Y-118414994D01*
X166810443Y-118898060D01*
X166697100Y-119467876D01*
X166697100Y-120562124D01*
X166810443Y-121131940D01*
X167133218Y-121615006D01*
X167287359Y-121718000D01*
X164004841Y-121718000D01*
X164158982Y-121615006D01*
X164481757Y-121131940D01*
X164595100Y-120562124D01*
X164595100Y-119467876D01*
X164481757Y-118898060D01*
X164158982Y-118414994D01*
X163675916Y-118092219D01*
X163106100Y-117978876D01*
X162536284Y-118092219D01*
X162053218Y-118414994D01*
X161836100Y-118739933D01*
X161618982Y-118414994D01*
X161135916Y-118092219D01*
X160566100Y-117978876D01*
X159996284Y-118092219D01*
X159513218Y-118414994D01*
X159241345Y-118821880D01*
X158924126Y-118429370D01*
X158443377Y-118167740D01*
X158369170Y-118152780D01*
X158153100Y-118275280D01*
X158153100Y-119888000D01*
X158173100Y-119888000D01*
X158173100Y-120142000D01*
X158153100Y-120142000D01*
X158153100Y-120162000D01*
X157899100Y-120162000D01*
X157899100Y-120142000D01*
X157879100Y-120142000D01*
X157879100Y-119888000D01*
X157899100Y-119888000D01*
X157899100Y-118275280D01*
X157683030Y-118152780D01*
X157608823Y-118167740D01*
X157128074Y-118429370D01*
X156810855Y-118821880D01*
X156538982Y-118414994D01*
X156055916Y-118092219D01*
X155486100Y-117978876D01*
X154916284Y-118092219D01*
X154433218Y-118414994D01*
X154216100Y-118739933D01*
X153998982Y-118414994D01*
X153515916Y-118092219D01*
X152946100Y-117978876D01*
X152376284Y-118092219D01*
X151893218Y-118414994D01*
X151676100Y-118739933D01*
X151458982Y-118414994D01*
X150975916Y-118092219D01*
X150406100Y-117978876D01*
X149836284Y-118092219D01*
X149353218Y-118414994D01*
X149136100Y-118739933D01*
X148918982Y-118414994D01*
X148435916Y-118092219D01*
X147866100Y-117978876D01*
X147296284Y-118092219D01*
X146813218Y-118414994D01*
X146596100Y-118739933D01*
X146378982Y-118414994D01*
X145895916Y-118092219D01*
X145326100Y-117978876D01*
X144756284Y-118092219D01*
X144273218Y-118414994D01*
X143950443Y-118898060D01*
X143837100Y-119467876D01*
X143837100Y-120562124D01*
X143950443Y-121131940D01*
X144273218Y-121615006D01*
X144427359Y-121718000D01*
X132926183Y-121718000D01*
X133317094Y-121327771D01*
X133670198Y-120477402D01*
X133671001Y-119556637D01*
X133319382Y-118705654D01*
X132668871Y-118054006D01*
X131818502Y-117700902D01*
X130897737Y-117700099D01*
X130046754Y-118051718D01*
X129395106Y-118702229D01*
X129042002Y-119552598D01*
X129041199Y-120473363D01*
X129392818Y-121324346D01*
X129785785Y-121718000D01*
X118058000Y-121718000D01*
X118058000Y-116546913D01*
X166548211Y-116546913D01*
X166810500Y-117181700D01*
X167295745Y-117667794D01*
X167930073Y-117931190D01*
X168616913Y-117931789D01*
X169251700Y-117669500D01*
X169737794Y-117184255D01*
X170001190Y-116549927D01*
X170001192Y-116546913D01*
X170358211Y-116546913D01*
X170620500Y-117181700D01*
X171105745Y-117667794D01*
X171740073Y-117931190D01*
X172426913Y-117931789D01*
X173061700Y-117669500D01*
X173547794Y-117184255D01*
X173811190Y-116549927D01*
X173811789Y-115863087D01*
X173549500Y-115228300D01*
X173064255Y-114742206D01*
X172429927Y-114478810D01*
X171743087Y-114478211D01*
X171108300Y-114740500D01*
X170622206Y-115225745D01*
X170358810Y-115860073D01*
X170358211Y-116546913D01*
X170001192Y-116546913D01*
X170001789Y-115863087D01*
X169739500Y-115228300D01*
X169254255Y-114742206D01*
X168619927Y-114478810D01*
X167933087Y-114478211D01*
X167298300Y-114740500D01*
X166812206Y-115225745D01*
X166548810Y-115860073D01*
X166548211Y-116546913D01*
X118058000Y-116546913D01*
X118058000Y-113123275D01*
X142119331Y-113123275D01*
X142181169Y-113359042D01*
X142682122Y-113535419D01*
X143212440Y-113506664D01*
X143568831Y-113359042D01*
X143576376Y-113330275D01*
X156089331Y-113330275D01*
X156151169Y-113566042D01*
X156652122Y-113742419D01*
X157182440Y-113713664D01*
X157538831Y-113566042D01*
X157600669Y-113330275D01*
X156845000Y-112574605D01*
X156089331Y-113330275D01*
X143576376Y-113330275D01*
X143630669Y-113123275D01*
X142875000Y-112367605D01*
X142119331Y-113123275D01*
X118058000Y-113123275D01*
X118058000Y-111995122D01*
X141527581Y-111995122D01*
X141556336Y-112525440D01*
X141703958Y-112881831D01*
X141939725Y-112943669D01*
X142695395Y-112188000D01*
X143054605Y-112188000D01*
X143810275Y-112943669D01*
X144046042Y-112881831D01*
X144222419Y-112380878D01*
X144212727Y-112202122D01*
X155497581Y-112202122D01*
X155526336Y-112732440D01*
X155673958Y-113088831D01*
X155909725Y-113150669D01*
X156665395Y-112395000D01*
X157024605Y-112395000D01*
X157780275Y-113150669D01*
X158016042Y-113088831D01*
X158192419Y-112587878D01*
X158163664Y-112057560D01*
X158016042Y-111701169D01*
X157992522Y-111695000D01*
X160403758Y-111695000D01*
X160403758Y-113095000D01*
X160454451Y-113364410D01*
X160613672Y-113611846D01*
X160856615Y-113777843D01*
X161145000Y-113836242D01*
X162545000Y-113836242D01*
X162814410Y-113785549D01*
X163061846Y-113626328D01*
X163227843Y-113383385D01*
X163286242Y-113095000D01*
X163286242Y-111695000D01*
X163235549Y-111425590D01*
X163076328Y-111178154D01*
X162833385Y-111012157D01*
X162545000Y-110953758D01*
X161145000Y-110953758D01*
X160875590Y-111004451D01*
X160628154Y-111163672D01*
X160462157Y-111406615D01*
X160403758Y-111695000D01*
X157992522Y-111695000D01*
X157780275Y-111639331D01*
X157024605Y-112395000D01*
X156665395Y-112395000D01*
X155909725Y-111639331D01*
X155673958Y-111701169D01*
X155497581Y-112202122D01*
X144212727Y-112202122D01*
X144193664Y-111850560D01*
X144046042Y-111494169D01*
X143914719Y-111459725D01*
X156089331Y-111459725D01*
X156845000Y-112215395D01*
X157600669Y-111459725D01*
X157538831Y-111223958D01*
X157037878Y-111047581D01*
X156507560Y-111076336D01*
X156151169Y-111223958D01*
X156089331Y-111459725D01*
X143914719Y-111459725D01*
X143810275Y-111432331D01*
X143054605Y-112188000D01*
X142695395Y-112188000D01*
X141939725Y-111432331D01*
X141703958Y-111494169D01*
X141527581Y-111995122D01*
X118058000Y-111995122D01*
X118058000Y-111252725D01*
X142119331Y-111252725D01*
X142875000Y-112008395D01*
X143630669Y-111252725D01*
X143568831Y-111016958D01*
X143067878Y-110840581D01*
X142537560Y-110869336D01*
X142181169Y-111016958D01*
X142119331Y-111252725D01*
X118058000Y-111252725D01*
X118058000Y-107658070D01*
X127550780Y-107658070D01*
X127704826Y-108029997D01*
X128069801Y-108434858D01*
X128561928Y-108669231D01*
X128778000Y-108547476D01*
X128778000Y-107442000D01*
X129032000Y-107442000D01*
X129032000Y-108547476D01*
X129248072Y-108669231D01*
X129740199Y-108434858D01*
X130105174Y-108029997D01*
X130259220Y-107658070D01*
X130136720Y-107442000D01*
X129032000Y-107442000D01*
X128778000Y-107442000D01*
X127673280Y-107442000D01*
X127550780Y-107658070D01*
X118058000Y-107658070D01*
X118058000Y-89535000D01*
X127386829Y-89535000D01*
X127500172Y-90104816D01*
X127822947Y-90587882D01*
X128147886Y-90805000D01*
X127822947Y-91022118D01*
X127500172Y-91505184D01*
X127386829Y-92075000D01*
X127500172Y-92644816D01*
X127822947Y-93127882D01*
X128147886Y-93345000D01*
X127822947Y-93562118D01*
X127500172Y-94045184D01*
X127386829Y-94615000D01*
X127500172Y-95184816D01*
X127822947Y-95667882D01*
X128147886Y-95885000D01*
X127822947Y-96102118D01*
X127500172Y-96585184D01*
X127386829Y-97155000D01*
X127500172Y-97724816D01*
X127822947Y-98207882D01*
X128147886Y-98425000D01*
X127822947Y-98642118D01*
X127500172Y-99125184D01*
X127386829Y-99695000D01*
X127500172Y-100264816D01*
X127822947Y-100747882D01*
X128147886Y-100965000D01*
X127822947Y-101182118D01*
X127500172Y-101665184D01*
X127386829Y-102235000D01*
X127500172Y-102804816D01*
X127822947Y-103287882D01*
X128147886Y-103505000D01*
X127822947Y-103722118D01*
X127500172Y-104205184D01*
X127386829Y-104775000D01*
X127500172Y-105344816D01*
X127822947Y-105827882D01*
X128246586Y-106110949D01*
X128069801Y-106195142D01*
X127704826Y-106600003D01*
X127550780Y-106971930D01*
X127673280Y-107188000D01*
X128778000Y-107188000D01*
X128778000Y-107168000D01*
X129032000Y-107168000D01*
X129032000Y-107188000D01*
X130136720Y-107188000D01*
X130259220Y-106971930D01*
X130105174Y-106600003D01*
X130004206Y-106488000D01*
X141433758Y-106488000D01*
X141433758Y-107888000D01*
X141484451Y-108157410D01*
X141643672Y-108404846D01*
X141886615Y-108570843D01*
X142175000Y-108629242D01*
X143575000Y-108629242D01*
X143844410Y-108578549D01*
X144091846Y-108419328D01*
X144257843Y-108176385D01*
X144316242Y-107888000D01*
X144316242Y-107529913D01*
X146609211Y-107529913D01*
X146871500Y-108164700D01*
X147356745Y-108650794D01*
X147991073Y-108914190D01*
X148677913Y-108914789D01*
X149312700Y-108652500D01*
X149798794Y-108167255D01*
X150062190Y-107532927D01*
X150062789Y-106846087D01*
X149849856Y-106330750D01*
X155510000Y-106330750D01*
X155510000Y-106871310D01*
X155606673Y-107104699D01*
X155785302Y-107283327D01*
X156018691Y-107380000D01*
X156559250Y-107380000D01*
X156718000Y-107221250D01*
X156718000Y-106172000D01*
X156972000Y-106172000D01*
X156972000Y-107221250D01*
X157130750Y-107380000D01*
X157671309Y-107380000D01*
X157904698Y-107283327D01*
X158083327Y-107104699D01*
X158180000Y-106871310D01*
X158180000Y-106330750D01*
X158176853Y-106327603D01*
X160417752Y-106327603D01*
X160634543Y-106852275D01*
X161035614Y-107254047D01*
X161559907Y-107471752D01*
X162127603Y-107472248D01*
X162652275Y-107255457D01*
X163054047Y-106854386D01*
X163248158Y-106386913D01*
X166548211Y-106386913D01*
X166810500Y-107021700D01*
X167295745Y-107507794D01*
X167930073Y-107771190D01*
X168616913Y-107771789D01*
X169251700Y-107509500D01*
X169737794Y-107024255D01*
X170001190Y-106389927D01*
X170001192Y-106386913D01*
X170358211Y-106386913D01*
X170620500Y-107021700D01*
X171105745Y-107507794D01*
X171740073Y-107771190D01*
X172426913Y-107771789D01*
X173061700Y-107509500D01*
X173547794Y-107024255D01*
X173811190Y-106389927D01*
X173811789Y-105703087D01*
X173549500Y-105068300D01*
X173064255Y-104582206D01*
X172429927Y-104318810D01*
X171743087Y-104318211D01*
X171108300Y-104580500D01*
X170622206Y-105065745D01*
X170358810Y-105700073D01*
X170358211Y-106386913D01*
X170001192Y-106386913D01*
X170001789Y-105703087D01*
X169739500Y-105068300D01*
X169254255Y-104582206D01*
X168619927Y-104318810D01*
X167933087Y-104318211D01*
X167298300Y-104580500D01*
X166812206Y-105065745D01*
X166548810Y-105700073D01*
X166548211Y-106386913D01*
X163248158Y-106386913D01*
X163271752Y-106330093D01*
X163272248Y-105762397D01*
X163055457Y-105237725D01*
X162654386Y-104835953D01*
X162130093Y-104618248D01*
X161562397Y-104617752D01*
X161037725Y-104834543D01*
X160635953Y-105235614D01*
X160418248Y-105759907D01*
X160417752Y-106327603D01*
X158176853Y-106327603D01*
X158021250Y-106172000D01*
X156972000Y-106172000D01*
X156718000Y-106172000D01*
X155668750Y-106172000D01*
X155510000Y-106330750D01*
X149849856Y-106330750D01*
X149800500Y-106211300D01*
X149315255Y-105725206D01*
X148680927Y-105461810D01*
X147994087Y-105461211D01*
X147359300Y-105723500D01*
X146873206Y-106208745D01*
X146609810Y-106843073D01*
X146609211Y-107529913D01*
X144316242Y-107529913D01*
X144316242Y-106488000D01*
X144265549Y-106218590D01*
X144106328Y-105971154D01*
X143863385Y-105805157D01*
X143575000Y-105746758D01*
X142175000Y-105746758D01*
X141905590Y-105797451D01*
X141658154Y-105956672D01*
X141492157Y-106199615D01*
X141433758Y-106488000D01*
X130004206Y-106488000D01*
X129740199Y-106195142D01*
X129563414Y-106110949D01*
X129987053Y-105827882D01*
X130309828Y-105344816D01*
X130334915Y-105218690D01*
X155510000Y-105218690D01*
X155510000Y-105759250D01*
X155668750Y-105918000D01*
X156718000Y-105918000D01*
X156718000Y-104868750D01*
X156972000Y-104868750D01*
X156972000Y-105918000D01*
X158021250Y-105918000D01*
X158180000Y-105759250D01*
X158180000Y-105218690D01*
X158083327Y-104985301D01*
X157904698Y-104806673D01*
X157671309Y-104710000D01*
X157130750Y-104710000D01*
X156972000Y-104868750D01*
X156718000Y-104868750D01*
X156559250Y-104710000D01*
X156018691Y-104710000D01*
X155785302Y-104806673D01*
X155606673Y-104985301D01*
X155510000Y-105218690D01*
X130334915Y-105218690D01*
X130423171Y-104775000D01*
X130309828Y-104205184D01*
X129987053Y-103722118D01*
X129662114Y-103505000D01*
X129987053Y-103287882D01*
X130119090Y-103090275D01*
X142119331Y-103090275D01*
X142181169Y-103326042D01*
X142682122Y-103502419D01*
X143212440Y-103473664D01*
X143568831Y-103326042D01*
X143630669Y-103090275D01*
X142875000Y-102334605D01*
X142119331Y-103090275D01*
X130119090Y-103090275D01*
X130309828Y-102804816D01*
X130423171Y-102235000D01*
X130368893Y-101962122D01*
X141527581Y-101962122D01*
X141556336Y-102492440D01*
X141703958Y-102848831D01*
X141939725Y-102910669D01*
X142695395Y-102155000D01*
X143054605Y-102155000D01*
X143810275Y-102910669D01*
X144046042Y-102848831D01*
X144222419Y-102347878D01*
X144193664Y-101817560D01*
X144046042Y-101461169D01*
X143810275Y-101399331D01*
X143054605Y-102155000D01*
X142695395Y-102155000D01*
X141939725Y-101399331D01*
X141703958Y-101461169D01*
X141527581Y-101962122D01*
X130368893Y-101962122D01*
X130309828Y-101665184D01*
X130012182Y-101219725D01*
X142119331Y-101219725D01*
X142875000Y-101975395D01*
X143540181Y-101310213D01*
X152234392Y-101310213D01*
X152303857Y-101552397D01*
X152827302Y-101739144D01*
X153382368Y-101711362D01*
X153766143Y-101552397D01*
X153835608Y-101310213D01*
X159854392Y-101310213D01*
X159923857Y-101552397D01*
X160447302Y-101739144D01*
X161002368Y-101711362D01*
X161386143Y-101552397D01*
X161455608Y-101310213D01*
X167474392Y-101310213D01*
X167543857Y-101552397D01*
X168067302Y-101739144D01*
X168622368Y-101711362D01*
X169006143Y-101552397D01*
X169075608Y-101310213D01*
X175094392Y-101310213D01*
X175163857Y-101552397D01*
X175687302Y-101739144D01*
X176242368Y-101711362D01*
X176626143Y-101552397D01*
X176695608Y-101310213D01*
X175895000Y-100509605D01*
X175094392Y-101310213D01*
X169075608Y-101310213D01*
X168275000Y-100509605D01*
X167474392Y-101310213D01*
X161455608Y-101310213D01*
X160655000Y-100509605D01*
X159854392Y-101310213D01*
X153835608Y-101310213D01*
X153035000Y-100509605D01*
X152234392Y-101310213D01*
X143540181Y-101310213D01*
X143630669Y-101219725D01*
X143568831Y-100983958D01*
X143067878Y-100807581D01*
X142537560Y-100836336D01*
X142181169Y-100983958D01*
X142119331Y-101219725D01*
X130012182Y-101219725D01*
X129987053Y-101182118D01*
X129662114Y-100965000D01*
X129987053Y-100747882D01*
X130309828Y-100264816D01*
X130338175Y-100122302D01*
X151625856Y-100122302D01*
X151653638Y-100677368D01*
X151812603Y-101061143D01*
X152054787Y-101130608D01*
X152855395Y-100330000D01*
X153214605Y-100330000D01*
X154015213Y-101130608D01*
X154257397Y-101061143D01*
X154444144Y-100537698D01*
X154423353Y-100122302D01*
X159245856Y-100122302D01*
X159273638Y-100677368D01*
X159432603Y-101061143D01*
X159674787Y-101130608D01*
X160475395Y-100330000D01*
X160834605Y-100330000D01*
X161635213Y-101130608D01*
X161877397Y-101061143D01*
X162064144Y-100537698D01*
X162043353Y-100122302D01*
X166865856Y-100122302D01*
X166893638Y-100677368D01*
X167052603Y-101061143D01*
X167294787Y-101130608D01*
X168095395Y-100330000D01*
X168454605Y-100330000D01*
X169255213Y-101130608D01*
X169497397Y-101061143D01*
X169684144Y-100537698D01*
X169663353Y-100122302D01*
X174485856Y-100122302D01*
X174513638Y-100677368D01*
X174672603Y-101061143D01*
X174914787Y-101130608D01*
X175715395Y-100330000D01*
X176074605Y-100330000D01*
X176875213Y-101130608D01*
X177117397Y-101061143D01*
X177304144Y-100537698D01*
X177276362Y-99982632D01*
X177117397Y-99598857D01*
X176875213Y-99529392D01*
X176074605Y-100330000D01*
X175715395Y-100330000D01*
X174914787Y-99529392D01*
X174672603Y-99598857D01*
X174485856Y-100122302D01*
X169663353Y-100122302D01*
X169656362Y-99982632D01*
X169497397Y-99598857D01*
X169255213Y-99529392D01*
X168454605Y-100330000D01*
X168095395Y-100330000D01*
X167294787Y-99529392D01*
X167052603Y-99598857D01*
X166865856Y-100122302D01*
X162043353Y-100122302D01*
X162036362Y-99982632D01*
X161877397Y-99598857D01*
X161635213Y-99529392D01*
X160834605Y-100330000D01*
X160475395Y-100330000D01*
X159674787Y-99529392D01*
X159432603Y-99598857D01*
X159245856Y-100122302D01*
X154423353Y-100122302D01*
X154416362Y-99982632D01*
X154257397Y-99598857D01*
X154015213Y-99529392D01*
X153214605Y-100330000D01*
X152855395Y-100330000D01*
X152054787Y-99529392D01*
X151812603Y-99598857D01*
X151625856Y-100122302D01*
X130338175Y-100122302D01*
X130423171Y-99695000D01*
X130309828Y-99125184D01*
X129987053Y-98642118D01*
X129662114Y-98425000D01*
X129987053Y-98207882D01*
X130309828Y-97724816D01*
X130423171Y-97155000D01*
X130309828Y-96585184D01*
X130222842Y-96455000D01*
X141433758Y-96455000D01*
X141433758Y-97855000D01*
X141484451Y-98124410D01*
X141643672Y-98371846D01*
X141886615Y-98537843D01*
X142175000Y-98596242D01*
X143575000Y-98596242D01*
X143844410Y-98545549D01*
X144091846Y-98386328D01*
X144257843Y-98143385D01*
X144316242Y-97855000D01*
X144316242Y-97369913D01*
X146609211Y-97369913D01*
X146871500Y-98004700D01*
X147356745Y-98490794D01*
X147991073Y-98754190D01*
X148677913Y-98754789D01*
X149312700Y-98492500D01*
X149798794Y-98007255D01*
X150062190Y-97372927D01*
X150062789Y-96686087D01*
X149800500Y-96051300D01*
X149315255Y-95565206D01*
X149266307Y-95544881D01*
X151545742Y-95544881D01*
X151771951Y-96092349D01*
X152190448Y-96511577D01*
X152210105Y-96519739D01*
X152192651Y-96526951D01*
X151773423Y-96945448D01*
X151546259Y-97492520D01*
X151545742Y-98084881D01*
X151771951Y-98632349D01*
X152190448Y-99051577D01*
X152314629Y-99103141D01*
X152303857Y-99107603D01*
X152234392Y-99349787D01*
X153035000Y-100150395D01*
X153835608Y-99349787D01*
X153766143Y-99107603D01*
X153754967Y-99103616D01*
X153877349Y-99053049D01*
X154296577Y-98634552D01*
X154523741Y-98087480D01*
X154524258Y-97495119D01*
X154298049Y-96947651D01*
X153879552Y-96528423D01*
X153859895Y-96520261D01*
X153877349Y-96513049D01*
X154296577Y-96094552D01*
X154523741Y-95547480D01*
X154523743Y-95544881D01*
X159165742Y-95544881D01*
X159391951Y-96092349D01*
X159810448Y-96511577D01*
X159830105Y-96519739D01*
X159812651Y-96526951D01*
X159393423Y-96945448D01*
X159166259Y-97492520D01*
X159165742Y-98084881D01*
X159391951Y-98632349D01*
X159810448Y-99051577D01*
X159934629Y-99103141D01*
X159923857Y-99107603D01*
X159854392Y-99349787D01*
X160655000Y-100150395D01*
X161455608Y-99349787D01*
X161386143Y-99107603D01*
X161374967Y-99103616D01*
X161497349Y-99053049D01*
X161916577Y-98634552D01*
X162143741Y-98087480D01*
X162144258Y-97495119D01*
X161918049Y-96947651D01*
X161499552Y-96528423D01*
X161479895Y-96520261D01*
X161497349Y-96513049D01*
X161916577Y-96094552D01*
X162143741Y-95547480D01*
X162143743Y-95544881D01*
X166785742Y-95544881D01*
X167011951Y-96092349D01*
X167430448Y-96511577D01*
X167450105Y-96519739D01*
X167432651Y-96526951D01*
X167013423Y-96945448D01*
X166786259Y-97492520D01*
X166785742Y-98084881D01*
X167011951Y-98632349D01*
X167430448Y-99051577D01*
X167554629Y-99103141D01*
X167543857Y-99107603D01*
X167474392Y-99349787D01*
X168275000Y-100150395D01*
X169075608Y-99349787D01*
X169006143Y-99107603D01*
X168994967Y-99103616D01*
X169117349Y-99053049D01*
X169536577Y-98634552D01*
X169763741Y-98087480D01*
X169764258Y-97495119D01*
X169538049Y-96947651D01*
X169119552Y-96528423D01*
X169099895Y-96520261D01*
X169117349Y-96513049D01*
X169536577Y-96094552D01*
X169763741Y-95547480D01*
X169763743Y-95544881D01*
X174405742Y-95544881D01*
X174631951Y-96092349D01*
X175050448Y-96511577D01*
X175070105Y-96519739D01*
X175052651Y-96526951D01*
X174633423Y-96945448D01*
X174406259Y-97492520D01*
X174405742Y-98084881D01*
X174631951Y-98632349D01*
X175050448Y-99051577D01*
X175174629Y-99103141D01*
X175163857Y-99107603D01*
X175094392Y-99349787D01*
X175895000Y-100150395D01*
X176695608Y-99349787D01*
X176626143Y-99107603D01*
X176614967Y-99103616D01*
X176737349Y-99053049D01*
X177156577Y-98634552D01*
X177383741Y-98087480D01*
X177384258Y-97495119D01*
X177158049Y-96947651D01*
X176739552Y-96528423D01*
X176719895Y-96520261D01*
X176737349Y-96513049D01*
X177156577Y-96094552D01*
X177383741Y-95547480D01*
X177384258Y-94955119D01*
X177158049Y-94407651D01*
X176739552Y-93988423D01*
X176192480Y-93761259D01*
X175600119Y-93760742D01*
X175052651Y-93986951D01*
X174633423Y-94405448D01*
X174406259Y-94952520D01*
X174405742Y-95544881D01*
X169763743Y-95544881D01*
X169764258Y-94955119D01*
X169538049Y-94407651D01*
X169119552Y-93988423D01*
X168572480Y-93761259D01*
X167980119Y-93760742D01*
X167432651Y-93986951D01*
X167013423Y-94405448D01*
X166786259Y-94952520D01*
X166785742Y-95544881D01*
X162143743Y-95544881D01*
X162144258Y-94955119D01*
X161918049Y-94407651D01*
X161499552Y-93988423D01*
X160952480Y-93761259D01*
X160360119Y-93760742D01*
X159812651Y-93986951D01*
X159393423Y-94405448D01*
X159166259Y-94952520D01*
X159165742Y-95544881D01*
X154523743Y-95544881D01*
X154524258Y-94955119D01*
X154298049Y-94407651D01*
X153879552Y-93988423D01*
X153332480Y-93761259D01*
X152740119Y-93760742D01*
X152192651Y-93986951D01*
X151773423Y-94405448D01*
X151546259Y-94952520D01*
X151545742Y-95544881D01*
X149266307Y-95544881D01*
X148680927Y-95301810D01*
X147994087Y-95301211D01*
X147359300Y-95563500D01*
X146873206Y-96048745D01*
X146609810Y-96683073D01*
X146609211Y-97369913D01*
X144316242Y-97369913D01*
X144316242Y-96455000D01*
X144265549Y-96185590D01*
X144106328Y-95938154D01*
X143863385Y-95772157D01*
X143575000Y-95713758D01*
X142175000Y-95713758D01*
X141905590Y-95764451D01*
X141658154Y-95923672D01*
X141492157Y-96166615D01*
X141433758Y-96455000D01*
X130222842Y-96455000D01*
X129987053Y-96102118D01*
X129662114Y-95885000D01*
X129987053Y-95667882D01*
X130309828Y-95184816D01*
X130423171Y-94615000D01*
X130309828Y-94045184D01*
X129987053Y-93562118D01*
X129662114Y-93345000D01*
X129987053Y-93127882D01*
X130309828Y-92644816D01*
X130423171Y-92075000D01*
X130390135Y-91908913D01*
X148768211Y-91908913D01*
X149030500Y-92543700D01*
X149515745Y-93029794D01*
X150150073Y-93293190D01*
X150836913Y-93293789D01*
X151471700Y-93031500D01*
X151957794Y-92546255D01*
X152221190Y-91911927D01*
X152221192Y-91908913D01*
X158928211Y-91908913D01*
X159190500Y-92543700D01*
X159675745Y-93029794D01*
X160310073Y-93293190D01*
X160996913Y-93293789D01*
X161631700Y-93031500D01*
X162117794Y-92546255D01*
X162191030Y-92369881D01*
X179396842Y-92369881D01*
X179623051Y-92917349D01*
X180041548Y-93336577D01*
X180061205Y-93344739D01*
X180043751Y-93351951D01*
X179624523Y-93770448D01*
X179397359Y-94317520D01*
X179396842Y-94909881D01*
X179623051Y-95457349D01*
X180041548Y-95876577D01*
X180061205Y-95884739D01*
X180043751Y-95891951D01*
X179624523Y-96310448D01*
X179397359Y-96857520D01*
X179396842Y-97449881D01*
X179623051Y-97997349D01*
X180041548Y-98416577D01*
X180588620Y-98643741D01*
X181180981Y-98644258D01*
X181728449Y-98418049D01*
X182147677Y-97999552D01*
X182155839Y-97979895D01*
X182163051Y-97997349D01*
X182581548Y-98416577D01*
X183128620Y-98643741D01*
X183720981Y-98644258D01*
X184268449Y-98418049D01*
X184687677Y-97999552D01*
X184914841Y-97452480D01*
X184915358Y-96860119D01*
X184689149Y-96312651D01*
X184270652Y-95893423D01*
X184250995Y-95885261D01*
X184268449Y-95878049D01*
X184687677Y-95459552D01*
X184914841Y-94912480D01*
X184915358Y-94320119D01*
X184689149Y-93772651D01*
X184270652Y-93353423D01*
X184250995Y-93345261D01*
X184268449Y-93338049D01*
X184687677Y-92919552D01*
X184914841Y-92372480D01*
X184915358Y-91780119D01*
X184689149Y-91232651D01*
X184270652Y-90813423D01*
X183723580Y-90586259D01*
X183131219Y-90585742D01*
X182583751Y-90811951D01*
X182164523Y-91230448D01*
X182156361Y-91250105D01*
X182149149Y-91232651D01*
X181730652Y-90813423D01*
X181183580Y-90586259D01*
X180591219Y-90585742D01*
X180043751Y-90811951D01*
X179624523Y-91230448D01*
X179397359Y-91777520D01*
X179396842Y-92369881D01*
X162191030Y-92369881D01*
X162381190Y-91911927D01*
X162381789Y-91225087D01*
X162119500Y-90590300D01*
X161634255Y-90104206D01*
X160999927Y-89840810D01*
X160313087Y-89840211D01*
X159678300Y-90102500D01*
X159192206Y-90587745D01*
X158928810Y-91222073D01*
X158928211Y-91908913D01*
X152221192Y-91908913D01*
X152221789Y-91225087D01*
X151959500Y-90590300D01*
X151474255Y-90104206D01*
X150839927Y-89840810D01*
X150153087Y-89840211D01*
X149518300Y-90102500D01*
X149032206Y-90587745D01*
X148768810Y-91222073D01*
X148768211Y-91908913D01*
X130390135Y-91908913D01*
X130309828Y-91505184D01*
X129987053Y-91022118D01*
X129662114Y-90805000D01*
X129987053Y-90587882D01*
X130309828Y-90104816D01*
X130423171Y-89535000D01*
X130309828Y-88965184D01*
X129987053Y-88482118D01*
X129503987Y-88159343D01*
X128934171Y-88046000D01*
X128875829Y-88046000D01*
X128306013Y-88159343D01*
X127822947Y-88482118D01*
X127500172Y-88965184D01*
X127386829Y-89535000D01*
X118058000Y-89535000D01*
X118058000Y-86930000D01*
X135718758Y-86930000D01*
X135718758Y-88330000D01*
X135769451Y-88599410D01*
X135928672Y-88846846D01*
X136171615Y-89012843D01*
X136460000Y-89071242D01*
X137860000Y-89071242D01*
X138129410Y-89020549D01*
X138376846Y-88861328D01*
X138542843Y-88618385D01*
X138601242Y-88330000D01*
X138601242Y-86930000D01*
X138550549Y-86660590D01*
X138391328Y-86413154D01*
X138148385Y-86247157D01*
X137860000Y-86188758D01*
X136460000Y-86188758D01*
X136190590Y-86239451D01*
X135943154Y-86398672D01*
X135777157Y-86641615D01*
X135718758Y-86930000D01*
X118058000Y-86930000D01*
X118058000Y-84796913D01*
X141148211Y-84796913D01*
X141410500Y-85431700D01*
X141895745Y-85917794D01*
X142196026Y-86042482D01*
X141898300Y-86165500D01*
X141412206Y-86650745D01*
X141148810Y-87285073D01*
X141148211Y-87971913D01*
X141410500Y-88606700D01*
X141895745Y-89092794D01*
X142530073Y-89356190D01*
X143216913Y-89356789D01*
X143851700Y-89094500D01*
X144337794Y-88609255D01*
X144601190Y-87974927D01*
X144601789Y-87288087D01*
X144339500Y-86653300D01*
X143854255Y-86167206D01*
X143553974Y-86042518D01*
X143851700Y-85919500D01*
X144337794Y-85434255D01*
X144601190Y-84799927D01*
X144601192Y-84796913D01*
X151308211Y-84796913D01*
X151570500Y-85431700D01*
X152055745Y-85917794D01*
X152356026Y-86042482D01*
X152058300Y-86165500D01*
X151572206Y-86650745D01*
X151308810Y-87285073D01*
X151308211Y-87971913D01*
X151570500Y-88606700D01*
X152055745Y-89092794D01*
X152690073Y-89356190D01*
X153376913Y-89356789D01*
X154011700Y-89094500D01*
X154497794Y-88609255D01*
X154761190Y-87974927D01*
X154761746Y-87336913D01*
X156388211Y-87336913D01*
X156650500Y-87971700D01*
X157135745Y-88457794D01*
X157770073Y-88721190D01*
X158456913Y-88721789D01*
X159091700Y-88459500D01*
X159577794Y-87974255D01*
X159841190Y-87339927D01*
X159841192Y-87336913D01*
X161468211Y-87336913D01*
X161730500Y-87971700D01*
X162215745Y-88457794D01*
X162850073Y-88721190D01*
X163536913Y-88721789D01*
X164171700Y-88459500D01*
X164657794Y-87974255D01*
X164921190Y-87339927D01*
X164921192Y-87336913D01*
X166548211Y-87336913D01*
X166810500Y-87971700D01*
X167295745Y-88457794D01*
X167930073Y-88721190D01*
X168616913Y-88721789D01*
X169251700Y-88459500D01*
X169737794Y-87974255D01*
X170001190Y-87339927D01*
X170001192Y-87336913D01*
X171628211Y-87336913D01*
X171890500Y-87971700D01*
X172375745Y-88457794D01*
X173010073Y-88721190D01*
X173696913Y-88721789D01*
X174331700Y-88459500D01*
X174817794Y-87974255D01*
X175081190Y-87339927D01*
X175081789Y-86653087D01*
X174819500Y-86018300D01*
X174334255Y-85532206D01*
X173699927Y-85268810D01*
X173013087Y-85268211D01*
X172378300Y-85530500D01*
X171892206Y-86015745D01*
X171628810Y-86650073D01*
X171628211Y-87336913D01*
X170001192Y-87336913D01*
X170001789Y-86653087D01*
X169739500Y-86018300D01*
X169254255Y-85532206D01*
X168619927Y-85268810D01*
X167933087Y-85268211D01*
X167298300Y-85530500D01*
X166812206Y-86015745D01*
X166548810Y-86650073D01*
X166548211Y-87336913D01*
X164921192Y-87336913D01*
X164921789Y-86653087D01*
X164659500Y-86018300D01*
X164174255Y-85532206D01*
X163539927Y-85268810D01*
X162853087Y-85268211D01*
X162218300Y-85530500D01*
X161732206Y-86015745D01*
X161468810Y-86650073D01*
X161468211Y-87336913D01*
X159841192Y-87336913D01*
X159841789Y-86653087D01*
X159579500Y-86018300D01*
X159094255Y-85532206D01*
X158459927Y-85268810D01*
X157773087Y-85268211D01*
X157138300Y-85530500D01*
X156652206Y-86015745D01*
X156388810Y-86650073D01*
X156388211Y-87336913D01*
X154761746Y-87336913D01*
X154761789Y-87288087D01*
X154499500Y-86653300D01*
X154014255Y-86167206D01*
X153713974Y-86042518D01*
X154011700Y-85919500D01*
X154497794Y-85434255D01*
X154761190Y-84799927D01*
X154761789Y-84113087D01*
X154499500Y-83478300D01*
X154014255Y-82992206D01*
X153379927Y-82728810D01*
X152693087Y-82728211D01*
X152058300Y-82990500D01*
X151572206Y-83475745D01*
X151308810Y-84110073D01*
X151308211Y-84796913D01*
X144601192Y-84796913D01*
X144601789Y-84113087D01*
X144339500Y-83478300D01*
X143854255Y-82992206D01*
X143219927Y-82728810D01*
X142533087Y-82728211D01*
X141898300Y-82990500D01*
X141412206Y-83475745D01*
X141148810Y-84110073D01*
X141148211Y-84796913D01*
X118058000Y-84796913D01*
X118058000Y-83565275D01*
X136404331Y-83565275D01*
X136466169Y-83801042D01*
X136967122Y-83977419D01*
X137497440Y-83948664D01*
X137853831Y-83801042D01*
X137915669Y-83565275D01*
X137160000Y-82809605D01*
X136404331Y-83565275D01*
X118058000Y-83565275D01*
X118058000Y-82437122D01*
X135812581Y-82437122D01*
X135841336Y-82967440D01*
X135988958Y-83323831D01*
X136224725Y-83385669D01*
X136980395Y-82630000D01*
X137339605Y-82630000D01*
X138095275Y-83385669D01*
X138331042Y-83323831D01*
X138507419Y-82822878D01*
X138478664Y-82292560D01*
X138331042Y-81936169D01*
X138095275Y-81874331D01*
X137339605Y-82630000D01*
X136980395Y-82630000D01*
X136224725Y-81874331D01*
X135988958Y-81936169D01*
X135812581Y-82437122D01*
X118058000Y-82437122D01*
X118058000Y-81694725D01*
X136404331Y-81694725D01*
X137160000Y-82450395D01*
X137915669Y-81694725D01*
X137853831Y-81458958D01*
X137352878Y-81282581D01*
X136822560Y-81311336D01*
X136466169Y-81458958D01*
X136404331Y-81694725D01*
X118058000Y-81694725D01*
X118058000Y-80199000D01*
X141433758Y-80199000D01*
X141433758Y-81599000D01*
X141484451Y-81868410D01*
X141643672Y-82115846D01*
X141886615Y-82281843D01*
X142175000Y-82340242D01*
X143575000Y-82340242D01*
X143844410Y-82289549D01*
X144091846Y-82130328D01*
X144257843Y-81887385D01*
X144316242Y-81599000D01*
X144316242Y-80199000D01*
X144265549Y-79929590D01*
X144106328Y-79682154D01*
X143863385Y-79516157D01*
X143575000Y-79457758D01*
X142175000Y-79457758D01*
X141905590Y-79508451D01*
X141658154Y-79667672D01*
X141492157Y-79910615D01*
X141433758Y-80199000D01*
X118058000Y-80199000D01*
X118058000Y-76834275D01*
X142119331Y-76834275D01*
X142181169Y-77070042D01*
X142682122Y-77246419D01*
X143212440Y-77217664D01*
X143310821Y-77176913D01*
X156388211Y-77176913D01*
X156650500Y-77811700D01*
X157135745Y-78297794D01*
X157770073Y-78561190D01*
X158456913Y-78561789D01*
X159091700Y-78299500D01*
X159577794Y-77814255D01*
X159841190Y-77179927D01*
X159841192Y-77176913D01*
X161468211Y-77176913D01*
X161730500Y-77811700D01*
X162215745Y-78297794D01*
X162850073Y-78561190D01*
X163536913Y-78561789D01*
X164171700Y-78299500D01*
X164657794Y-77814255D01*
X164921190Y-77179927D01*
X164921192Y-77176913D01*
X166548211Y-77176913D01*
X166810500Y-77811700D01*
X167295745Y-78297794D01*
X167930073Y-78561190D01*
X168616913Y-78561789D01*
X169251700Y-78299500D01*
X169737794Y-77814255D01*
X170001190Y-77179927D01*
X170001192Y-77176913D01*
X171628211Y-77176913D01*
X171890500Y-77811700D01*
X172375745Y-78297794D01*
X173010073Y-78561190D01*
X173696913Y-78561789D01*
X174331700Y-78299500D01*
X174817794Y-77814255D01*
X175081190Y-77179927D01*
X175081789Y-76493087D01*
X174819500Y-75858300D01*
X174334255Y-75372206D01*
X173699927Y-75108810D01*
X173013087Y-75108211D01*
X172378300Y-75370500D01*
X171892206Y-75855745D01*
X171628810Y-76490073D01*
X171628211Y-77176913D01*
X170001192Y-77176913D01*
X170001789Y-76493087D01*
X169739500Y-75858300D01*
X169254255Y-75372206D01*
X168619927Y-75108810D01*
X167933087Y-75108211D01*
X167298300Y-75370500D01*
X166812206Y-75855745D01*
X166548810Y-76490073D01*
X166548211Y-77176913D01*
X164921192Y-77176913D01*
X164921789Y-76493087D01*
X164659500Y-75858300D01*
X164174255Y-75372206D01*
X163539927Y-75108810D01*
X162853087Y-75108211D01*
X162218300Y-75370500D01*
X161732206Y-75855745D01*
X161468810Y-76490073D01*
X161468211Y-77176913D01*
X159841192Y-77176913D01*
X159841789Y-76493087D01*
X159579500Y-75858300D01*
X159094255Y-75372206D01*
X158459927Y-75108810D01*
X157773087Y-75108211D01*
X157138300Y-75370500D01*
X156652206Y-75855745D01*
X156388810Y-76490073D01*
X156388211Y-77176913D01*
X143310821Y-77176913D01*
X143568831Y-77070042D01*
X143630669Y-76834275D01*
X142875000Y-76078605D01*
X142119331Y-76834275D01*
X118058000Y-76834275D01*
X118058000Y-75706122D01*
X141527581Y-75706122D01*
X141556336Y-76236440D01*
X141703958Y-76592831D01*
X141939725Y-76654669D01*
X142695395Y-75899000D01*
X143054605Y-75899000D01*
X143810275Y-76654669D01*
X144046042Y-76592831D01*
X144222419Y-76091878D01*
X144193664Y-75561560D01*
X144046042Y-75205169D01*
X143810275Y-75143331D01*
X143054605Y-75899000D01*
X142695395Y-75899000D01*
X141939725Y-75143331D01*
X141703958Y-75205169D01*
X141527581Y-75706122D01*
X118058000Y-75706122D01*
X118058000Y-74963725D01*
X142119331Y-74963725D01*
X142875000Y-75719395D01*
X143630669Y-74963725D01*
X143568831Y-74727958D01*
X143067878Y-74551581D01*
X142537560Y-74580336D01*
X142181169Y-74727958D01*
X142119331Y-74963725D01*
X118058000Y-74963725D01*
X118058000Y-69798000D01*
X131310461Y-69798000D01*
X130665106Y-70442229D01*
X130665106Y-70442229D01*
G37*
X130665106Y-70442229D02*
X130312002Y-71292598D01*
X130311199Y-72213363D01*
X130662818Y-73064346D01*
X131313329Y-73715994D01*
X132163698Y-74069098D01*
X133084463Y-74069901D01*
X133935446Y-73718282D01*
X134587094Y-73067771D01*
X134761737Y-72647185D01*
X134806443Y-72871940D01*
X135129218Y-73355006D01*
X135612284Y-73677781D01*
X136182100Y-73791124D01*
X136751916Y-73677781D01*
X137234982Y-73355006D01*
X137452100Y-73030067D01*
X137669218Y-73355006D01*
X138152284Y-73677781D01*
X138722100Y-73791124D01*
X139291916Y-73677781D01*
X139774982Y-73355006D01*
X139992100Y-73030067D01*
X140209218Y-73355006D01*
X140692284Y-73677781D01*
X141262100Y-73791124D01*
X141831916Y-73677781D01*
X142314982Y-73355006D01*
X142586855Y-72948120D01*
X142904074Y-73340630D01*
X143384823Y-73602260D01*
X143459030Y-73617220D01*
X143675100Y-73494720D01*
X143675100Y-71882000D01*
X143655100Y-71882000D01*
X143655100Y-71628000D01*
X143675100Y-71628000D01*
X143675100Y-70015280D01*
X143459030Y-69892780D01*
X143384823Y-69907740D01*
X142904074Y-70169370D01*
X142586855Y-70561880D01*
X142314982Y-70154994D01*
X141831916Y-69832219D01*
X141659885Y-69798000D01*
X145944315Y-69798000D01*
X145772284Y-69832219D01*
X145289218Y-70154994D01*
X145017345Y-70561880D01*
X144700126Y-70169370D01*
X144219377Y-69907740D01*
X144145170Y-69892780D01*
X143929100Y-70015280D01*
X143929100Y-71628000D01*
X143949100Y-71628000D01*
X143949100Y-71882000D01*
X143929100Y-71882000D01*
X143929100Y-73494720D01*
X144145170Y-73617220D01*
X144219377Y-73602260D01*
X144700126Y-73340630D01*
X145017345Y-72948120D01*
X145289218Y-73355006D01*
X145772284Y-73677781D01*
X146342100Y-73791124D01*
X146911916Y-73677781D01*
X147394982Y-73355006D01*
X147612100Y-73030067D01*
X147829218Y-73355006D01*
X148312284Y-73677781D01*
X148882100Y-73791124D01*
X149451916Y-73677781D01*
X149934982Y-73355006D01*
X150152100Y-73030067D01*
X150369218Y-73355006D01*
X150852284Y-73677781D01*
X151422100Y-73791124D01*
X151991916Y-73677781D01*
X152474982Y-73355006D01*
X152692100Y-73030067D01*
X152909218Y-73355006D01*
X153392284Y-73677781D01*
X153962100Y-73791124D01*
X154531916Y-73677781D01*
X155014982Y-73355006D01*
X155232100Y-73030067D01*
X155449218Y-73355006D01*
X155932284Y-73677781D01*
X156502100Y-73791124D01*
X157071916Y-73677781D01*
X157554982Y-73355006D01*
X157772100Y-73030067D01*
X157989218Y-73355006D01*
X158472284Y-73677781D01*
X159042100Y-73791124D01*
X159611916Y-73677781D01*
X160094982Y-73355006D01*
X160417757Y-72871940D01*
X160531100Y-72302124D01*
X160531100Y-71207876D01*
X160417757Y-70638060D01*
X160094982Y-70154994D01*
X159611916Y-69832219D01*
X159439885Y-69798000D01*
X162708315Y-69798000D01*
X162536284Y-69832219D01*
X162053218Y-70154994D01*
X161730443Y-70638060D01*
X161617100Y-71207876D01*
X161617100Y-72302124D01*
X161730443Y-72871940D01*
X162053218Y-73355006D01*
X162536284Y-73677781D01*
X163106100Y-73791124D01*
X163675916Y-73677781D01*
X164158982Y-73355006D01*
X164376100Y-73030067D01*
X164593218Y-73355006D01*
X165076284Y-73677781D01*
X165646100Y-73791124D01*
X166215916Y-73677781D01*
X166698982Y-73355006D01*
X166916100Y-73030067D01*
X167133218Y-73355006D01*
X167616284Y-73677781D01*
X168186100Y-73791124D01*
X168755916Y-73677781D01*
X169238982Y-73355006D01*
X169456100Y-73030067D01*
X169673218Y-73355006D01*
X170156284Y-73677781D01*
X170726100Y-73791124D01*
X171295916Y-73677781D01*
X171778982Y-73355006D01*
X171996100Y-73030067D01*
X172213218Y-73355006D01*
X172696284Y-73677781D01*
X173266100Y-73791124D01*
X173835916Y-73677781D01*
X174318982Y-73355006D01*
X174536100Y-73030067D01*
X174753218Y-73355006D01*
X175236284Y-73677781D01*
X175806100Y-73791124D01*
X176375916Y-73677781D01*
X176858982Y-73355006D01*
X177076100Y-73030067D01*
X177293218Y-73355006D01*
X177776284Y-73677781D01*
X178346100Y-73791124D01*
X178915916Y-73677781D01*
X179398982Y-73355006D01*
X179616100Y-73030067D01*
X179833218Y-73355006D01*
X180316284Y-73677781D01*
X180886100Y-73791124D01*
X181455916Y-73677781D01*
X181938982Y-73355006D01*
X182261757Y-72871940D01*
X182375100Y-72302124D01*
X182375100Y-71207876D01*
X182261757Y-70638060D01*
X181963306Y-70191398D01*
X182678000Y-70906091D01*
X182678000Y-81788000D01*
X182732046Y-82059705D01*
X182885954Y-82290046D01*
X185218000Y-84622091D01*
X185218000Y-85513972D01*
X184738871Y-85034006D01*
X183888502Y-84680902D01*
X182967737Y-84680099D01*
X182116754Y-85031718D01*
X181465106Y-85682229D01*
X181112002Y-86532598D01*
X181111199Y-87453363D01*
X181462818Y-88304346D01*
X182113329Y-88955994D01*
X182963698Y-89309098D01*
X183884463Y-89309901D01*
X184735446Y-88958282D01*
X185218000Y-88476570D01*
X185218000Y-113453972D01*
X184738871Y-112974006D01*
X183888502Y-112620902D01*
X182967737Y-112620099D01*
X182116754Y-112971718D01*
X181465106Y-113622229D01*
X181112002Y-114472598D01*
X181111199Y-115393363D01*
X181462818Y-116244346D01*
X182113329Y-116895994D01*
X182963698Y-117249098D01*
X183884463Y-117249901D01*
X184735446Y-116898282D01*
X185218000Y-116416570D01*
X185218000Y-117053909D01*
X182885954Y-119385954D01*
X182732046Y-119616295D01*
X182678000Y-119888000D01*
X182678000Y-121718000D01*
X181784841Y-121718000D01*
X181938982Y-121615006D01*
X182261757Y-121131940D01*
X182375100Y-120562124D01*
X182375100Y-119467876D01*
X182261757Y-118898060D01*
X181938982Y-118414994D01*
X181455916Y-118092219D01*
X180886100Y-117978876D01*
X180316284Y-118092219D01*
X179833218Y-118414994D01*
X179616100Y-118739933D01*
X179398982Y-118414994D01*
X178915916Y-118092219D01*
X178346100Y-117978876D01*
X177776284Y-118092219D01*
X177293218Y-118414994D01*
X177076100Y-118739933D01*
X176858982Y-118414994D01*
X176375916Y-118092219D01*
X175806100Y-117978876D01*
X175236284Y-118092219D01*
X174753218Y-118414994D01*
X174536100Y-118739933D01*
X174318982Y-118414994D01*
X173835916Y-118092219D01*
X173266100Y-117978876D01*
X172696284Y-118092219D01*
X172213218Y-118414994D01*
X171996100Y-118739933D01*
X171778982Y-118414994D01*
X171295916Y-118092219D01*
X170726100Y-117978876D01*
X170156284Y-118092219D01*
X169673218Y-118414994D01*
X169456100Y-118739933D01*
X169238982Y-118414994D01*
X168755916Y-118092219D01*
X168186100Y-117978876D01*
X167616284Y-118092219D01*
X167133218Y-118414994D01*
X166810443Y-118898060D01*
X166697100Y-119467876D01*
X166697100Y-120562124D01*
X166810443Y-121131940D01*
X167133218Y-121615006D01*
X167287359Y-121718000D01*
X164004841Y-121718000D01*
X164158982Y-121615006D01*
X164481757Y-121131940D01*
X164595100Y-120562124D01*
X164595100Y-119467876D01*
X164481757Y-118898060D01*
X164158982Y-118414994D01*
X163675916Y-118092219D01*
X163106100Y-117978876D01*
X162536284Y-118092219D01*
X162053218Y-118414994D01*
X161836100Y-118739933D01*
X161618982Y-118414994D01*
X161135916Y-118092219D01*
X160566100Y-117978876D01*
X159996284Y-118092219D01*
X159513218Y-118414994D01*
X159241345Y-118821880D01*
X158924126Y-118429370D01*
X158443377Y-118167740D01*
X158369170Y-118152780D01*
X158153100Y-118275280D01*
X158153100Y-119888000D01*
X158173100Y-119888000D01*
X158173100Y-120142000D01*
X158153100Y-120142000D01*
X158153100Y-120162000D01*
X157899100Y-120162000D01*
X157899100Y-120142000D01*
X157879100Y-120142000D01*
X157879100Y-119888000D01*
X157899100Y-119888000D01*
X157899100Y-118275280D01*
X157683030Y-118152780D01*
X157608823Y-118167740D01*
X157128074Y-118429370D01*
X156810855Y-118821880D01*
X156538982Y-118414994D01*
X156055916Y-118092219D01*
X155486100Y-117978876D01*
X154916284Y-118092219D01*
X154433218Y-118414994D01*
X154216100Y-118739933D01*
X153998982Y-118414994D01*
X153515916Y-118092219D01*
X152946100Y-117978876D01*
X152376284Y-118092219D01*
X151893218Y-118414994D01*
X151676100Y-118739933D01*
X151458982Y-118414994D01*
X150975916Y-118092219D01*
X150406100Y-117978876D01*
X149836284Y-118092219D01*
X149353218Y-118414994D01*
X149136100Y-118739933D01*
X148918982Y-118414994D01*
X148435916Y-118092219D01*
X147866100Y-117978876D01*
X147296284Y-118092219D01*
X146813218Y-118414994D01*
X146596100Y-118739933D01*
X146378982Y-118414994D01*
X145895916Y-118092219D01*
X145326100Y-117978876D01*
X144756284Y-118092219D01*
X144273218Y-118414994D01*
X143950443Y-118898060D01*
X143837100Y-119467876D01*
X143837100Y-120562124D01*
X143950443Y-121131940D01*
X144273218Y-121615006D01*
X144427359Y-121718000D01*
X132926183Y-121718000D01*
X133317094Y-121327771D01*
X133670198Y-120477402D01*
X133671001Y-119556637D01*
X133319382Y-118705654D01*
X132668871Y-118054006D01*
X131818502Y-117700902D01*
X130897737Y-117700099D01*
X130046754Y-118051718D01*
X129395106Y-118702229D01*
X129042002Y-119552598D01*
X129041199Y-120473363D01*
X129392818Y-121324346D01*
X129785785Y-121718000D01*
X118058000Y-121718000D01*
X118058000Y-116546913D01*
X166548211Y-116546913D01*
X166810500Y-117181700D01*
X167295745Y-117667794D01*
X167930073Y-117931190D01*
X168616913Y-117931789D01*
X169251700Y-117669500D01*
X169737794Y-117184255D01*
X170001190Y-116549927D01*
X170001192Y-116546913D01*
X170358211Y-116546913D01*
X170620500Y-117181700D01*
X171105745Y-117667794D01*
X171740073Y-117931190D01*
X172426913Y-117931789D01*
X173061700Y-117669500D01*
X173547794Y-117184255D01*
X173811190Y-116549927D01*
X173811789Y-115863087D01*
X173549500Y-115228300D01*
X173064255Y-114742206D01*
X172429927Y-114478810D01*
X171743087Y-114478211D01*
X171108300Y-114740500D01*
X170622206Y-115225745D01*
X170358810Y-115860073D01*
X170358211Y-116546913D01*
X170001192Y-116546913D01*
X170001789Y-115863087D01*
X169739500Y-115228300D01*
X169254255Y-114742206D01*
X168619927Y-114478810D01*
X167933087Y-114478211D01*
X167298300Y-114740500D01*
X166812206Y-115225745D01*
X166548810Y-115860073D01*
X166548211Y-116546913D01*
X118058000Y-116546913D01*
X118058000Y-113123275D01*
X142119331Y-113123275D01*
X142181169Y-113359042D01*
X142682122Y-113535419D01*
X143212440Y-113506664D01*
X143568831Y-113359042D01*
X143576376Y-113330275D01*
X156089331Y-113330275D01*
X156151169Y-113566042D01*
X156652122Y-113742419D01*
X157182440Y-113713664D01*
X157538831Y-113566042D01*
X157600669Y-113330275D01*
X156845000Y-112574605D01*
X156089331Y-113330275D01*
X143576376Y-113330275D01*
X143630669Y-113123275D01*
X142875000Y-112367605D01*
X142119331Y-113123275D01*
X118058000Y-113123275D01*
X118058000Y-111995122D01*
X141527581Y-111995122D01*
X141556336Y-112525440D01*
X141703958Y-112881831D01*
X141939725Y-112943669D01*
X142695395Y-112188000D01*
X143054605Y-112188000D01*
X143810275Y-112943669D01*
X144046042Y-112881831D01*
X144222419Y-112380878D01*
X144212727Y-112202122D01*
X155497581Y-112202122D01*
X155526336Y-112732440D01*
X155673958Y-113088831D01*
X155909725Y-113150669D01*
X156665395Y-112395000D01*
X157024605Y-112395000D01*
X157780275Y-113150669D01*
X158016042Y-113088831D01*
X158192419Y-112587878D01*
X158163664Y-112057560D01*
X158016042Y-111701169D01*
X157992522Y-111695000D01*
X160403758Y-111695000D01*
X160403758Y-113095000D01*
X160454451Y-113364410D01*
X160613672Y-113611846D01*
X160856615Y-113777843D01*
X161145000Y-113836242D01*
X162545000Y-113836242D01*
X162814410Y-113785549D01*
X163061846Y-113626328D01*
X163227843Y-113383385D01*
X163286242Y-113095000D01*
X163286242Y-111695000D01*
X163235549Y-111425590D01*
X163076328Y-111178154D01*
X162833385Y-111012157D01*
X162545000Y-110953758D01*
X161145000Y-110953758D01*
X160875590Y-111004451D01*
X160628154Y-111163672D01*
X160462157Y-111406615D01*
X160403758Y-111695000D01*
X157992522Y-111695000D01*
X157780275Y-111639331D01*
X157024605Y-112395000D01*
X156665395Y-112395000D01*
X155909725Y-111639331D01*
X155673958Y-111701169D01*
X155497581Y-112202122D01*
X144212727Y-112202122D01*
X144193664Y-111850560D01*
X144046042Y-111494169D01*
X143914719Y-111459725D01*
X156089331Y-111459725D01*
X156845000Y-112215395D01*
X157600669Y-111459725D01*
X157538831Y-111223958D01*
X157037878Y-111047581D01*
X156507560Y-111076336D01*
X156151169Y-111223958D01*
X156089331Y-111459725D01*
X143914719Y-111459725D01*
X143810275Y-111432331D01*
X143054605Y-112188000D01*
X142695395Y-112188000D01*
X141939725Y-111432331D01*
X141703958Y-111494169D01*
X141527581Y-111995122D01*
X118058000Y-111995122D01*
X118058000Y-111252725D01*
X142119331Y-111252725D01*
X142875000Y-112008395D01*
X143630669Y-111252725D01*
X143568831Y-111016958D01*
X143067878Y-110840581D01*
X142537560Y-110869336D01*
X142181169Y-111016958D01*
X142119331Y-111252725D01*
X118058000Y-111252725D01*
X118058000Y-107658070D01*
X127550780Y-107658070D01*
X127704826Y-108029997D01*
X128069801Y-108434858D01*
X128561928Y-108669231D01*
X128778000Y-108547476D01*
X128778000Y-107442000D01*
X129032000Y-107442000D01*
X129032000Y-108547476D01*
X129248072Y-108669231D01*
X129740199Y-108434858D01*
X130105174Y-108029997D01*
X130259220Y-107658070D01*
X130136720Y-107442000D01*
X129032000Y-107442000D01*
X128778000Y-107442000D01*
X127673280Y-107442000D01*
X127550780Y-107658070D01*
X118058000Y-107658070D01*
X118058000Y-89535000D01*
X127386829Y-89535000D01*
X127500172Y-90104816D01*
X127822947Y-90587882D01*
X128147886Y-90805000D01*
X127822947Y-91022118D01*
X127500172Y-91505184D01*
X127386829Y-92075000D01*
X127500172Y-92644816D01*
X127822947Y-93127882D01*
X128147886Y-93345000D01*
X127822947Y-93562118D01*
X127500172Y-94045184D01*
X127386829Y-94615000D01*
X127500172Y-95184816D01*
X127822947Y-95667882D01*
X128147886Y-95885000D01*
X127822947Y-96102118D01*
X127500172Y-96585184D01*
X127386829Y-97155000D01*
X127500172Y-97724816D01*
X127822947Y-98207882D01*
X128147886Y-98425000D01*
X127822947Y-98642118D01*
X127500172Y-99125184D01*
X127386829Y-99695000D01*
X127500172Y-100264816D01*
X127822947Y-100747882D01*
X128147886Y-100965000D01*
X127822947Y-101182118D01*
X127500172Y-101665184D01*
X127386829Y-102235000D01*
X127500172Y-102804816D01*
X127822947Y-103287882D01*
X128147886Y-103505000D01*
X127822947Y-103722118D01*
X127500172Y-104205184D01*
X127386829Y-104775000D01*
X127500172Y-105344816D01*
X127822947Y-105827882D01*
X128246586Y-106110949D01*
X128069801Y-106195142D01*
X127704826Y-106600003D01*
X127550780Y-106971930D01*
X127673280Y-107188000D01*
X128778000Y-107188000D01*
X128778000Y-107168000D01*
X129032000Y-107168000D01*
X129032000Y-107188000D01*
X130136720Y-107188000D01*
X130259220Y-106971930D01*
X130105174Y-106600003D01*
X130004206Y-106488000D01*
X141433758Y-106488000D01*
X141433758Y-107888000D01*
X141484451Y-108157410D01*
X141643672Y-108404846D01*
X141886615Y-108570843D01*
X142175000Y-108629242D01*
X143575000Y-108629242D01*
X143844410Y-108578549D01*
X144091846Y-108419328D01*
X144257843Y-108176385D01*
X144316242Y-107888000D01*
X144316242Y-107529913D01*
X146609211Y-107529913D01*
X146871500Y-108164700D01*
X147356745Y-108650794D01*
X147991073Y-108914190D01*
X148677913Y-108914789D01*
X149312700Y-108652500D01*
X149798794Y-108167255D01*
X150062190Y-107532927D01*
X150062789Y-106846087D01*
X149849856Y-106330750D01*
X155510000Y-106330750D01*
X155510000Y-106871310D01*
X155606673Y-107104699D01*
X155785302Y-107283327D01*
X156018691Y-107380000D01*
X156559250Y-107380000D01*
X156718000Y-107221250D01*
X156718000Y-106172000D01*
X156972000Y-106172000D01*
X156972000Y-107221250D01*
X157130750Y-107380000D01*
X157671309Y-107380000D01*
X157904698Y-107283327D01*
X158083327Y-107104699D01*
X158180000Y-106871310D01*
X158180000Y-106330750D01*
X158176853Y-106327603D01*
X160417752Y-106327603D01*
X160634543Y-106852275D01*
X161035614Y-107254047D01*
X161559907Y-107471752D01*
X162127603Y-107472248D01*
X162652275Y-107255457D01*
X163054047Y-106854386D01*
X163248158Y-106386913D01*
X166548211Y-106386913D01*
X166810500Y-107021700D01*
X167295745Y-107507794D01*
X167930073Y-107771190D01*
X168616913Y-107771789D01*
X169251700Y-107509500D01*
X169737794Y-107024255D01*
X170001190Y-106389927D01*
X170001192Y-106386913D01*
X170358211Y-106386913D01*
X170620500Y-107021700D01*
X171105745Y-107507794D01*
X171740073Y-107771190D01*
X172426913Y-107771789D01*
X173061700Y-107509500D01*
X173547794Y-107024255D01*
X173811190Y-106389927D01*
X173811789Y-105703087D01*
X173549500Y-105068300D01*
X173064255Y-104582206D01*
X172429927Y-104318810D01*
X171743087Y-104318211D01*
X171108300Y-104580500D01*
X170622206Y-105065745D01*
X170358810Y-105700073D01*
X170358211Y-106386913D01*
X170001192Y-106386913D01*
X170001789Y-105703087D01*
X169739500Y-105068300D01*
X169254255Y-104582206D01*
X168619927Y-104318810D01*
X167933087Y-104318211D01*
X167298300Y-104580500D01*
X166812206Y-105065745D01*
X166548810Y-105700073D01*
X166548211Y-106386913D01*
X163248158Y-106386913D01*
X163271752Y-106330093D01*
X163272248Y-105762397D01*
X163055457Y-105237725D01*
X162654386Y-104835953D01*
X162130093Y-104618248D01*
X161562397Y-104617752D01*
X161037725Y-104834543D01*
X160635953Y-105235614D01*
X160418248Y-105759907D01*
X160417752Y-106327603D01*
X158176853Y-106327603D01*
X158021250Y-106172000D01*
X156972000Y-106172000D01*
X156718000Y-106172000D01*
X155668750Y-106172000D01*
X155510000Y-106330750D01*
X149849856Y-106330750D01*
X149800500Y-106211300D01*
X149315255Y-105725206D01*
X148680927Y-105461810D01*
X147994087Y-105461211D01*
X147359300Y-105723500D01*
X146873206Y-106208745D01*
X146609810Y-106843073D01*
X146609211Y-107529913D01*
X144316242Y-107529913D01*
X144316242Y-106488000D01*
X144265549Y-106218590D01*
X144106328Y-105971154D01*
X143863385Y-105805157D01*
X143575000Y-105746758D01*
X142175000Y-105746758D01*
X141905590Y-105797451D01*
X141658154Y-105956672D01*
X141492157Y-106199615D01*
X141433758Y-106488000D01*
X130004206Y-106488000D01*
X129740199Y-106195142D01*
X129563414Y-106110949D01*
X129987053Y-105827882D01*
X130309828Y-105344816D01*
X130334915Y-105218690D01*
X155510000Y-105218690D01*
X155510000Y-105759250D01*
X155668750Y-105918000D01*
X156718000Y-105918000D01*
X156718000Y-104868750D01*
X156972000Y-104868750D01*
X156972000Y-105918000D01*
X158021250Y-105918000D01*
X158180000Y-105759250D01*
X158180000Y-105218690D01*
X158083327Y-104985301D01*
X157904698Y-104806673D01*
X157671309Y-104710000D01*
X157130750Y-104710000D01*
X156972000Y-104868750D01*
X156718000Y-104868750D01*
X156559250Y-104710000D01*
X156018691Y-104710000D01*
X155785302Y-104806673D01*
X155606673Y-104985301D01*
X155510000Y-105218690D01*
X130334915Y-105218690D01*
X130423171Y-104775000D01*
X130309828Y-104205184D01*
X129987053Y-103722118D01*
X129662114Y-103505000D01*
X129987053Y-103287882D01*
X130119090Y-103090275D01*
X142119331Y-103090275D01*
X142181169Y-103326042D01*
X142682122Y-103502419D01*
X143212440Y-103473664D01*
X143568831Y-103326042D01*
X143630669Y-103090275D01*
X142875000Y-102334605D01*
X142119331Y-103090275D01*
X130119090Y-103090275D01*
X130309828Y-102804816D01*
X130423171Y-102235000D01*
X130368893Y-101962122D01*
X141527581Y-101962122D01*
X141556336Y-102492440D01*
X141703958Y-102848831D01*
X141939725Y-102910669D01*
X142695395Y-102155000D01*
X143054605Y-102155000D01*
X143810275Y-102910669D01*
X144046042Y-102848831D01*
X144222419Y-102347878D01*
X144193664Y-101817560D01*
X144046042Y-101461169D01*
X143810275Y-101399331D01*
X143054605Y-102155000D01*
X142695395Y-102155000D01*
X141939725Y-101399331D01*
X141703958Y-101461169D01*
X141527581Y-101962122D01*
X130368893Y-101962122D01*
X130309828Y-101665184D01*
X130012182Y-101219725D01*
X142119331Y-101219725D01*
X142875000Y-101975395D01*
X143540181Y-101310213D01*
X152234392Y-101310213D01*
X152303857Y-101552397D01*
X152827302Y-101739144D01*
X153382368Y-101711362D01*
X153766143Y-101552397D01*
X153835608Y-101310213D01*
X159854392Y-101310213D01*
X159923857Y-101552397D01*
X160447302Y-101739144D01*
X161002368Y-101711362D01*
X161386143Y-101552397D01*
X161455608Y-101310213D01*
X167474392Y-101310213D01*
X167543857Y-101552397D01*
X168067302Y-101739144D01*
X168622368Y-101711362D01*
X169006143Y-101552397D01*
X169075608Y-101310213D01*
X175094392Y-101310213D01*
X175163857Y-101552397D01*
X175687302Y-101739144D01*
X176242368Y-101711362D01*
X176626143Y-101552397D01*
X176695608Y-101310213D01*
X175895000Y-100509605D01*
X175094392Y-101310213D01*
X169075608Y-101310213D01*
X168275000Y-100509605D01*
X167474392Y-101310213D01*
X161455608Y-101310213D01*
X160655000Y-100509605D01*
X159854392Y-101310213D01*
X153835608Y-101310213D01*
X153035000Y-100509605D01*
X152234392Y-101310213D01*
X143540181Y-101310213D01*
X143630669Y-101219725D01*
X143568831Y-100983958D01*
X143067878Y-100807581D01*
X142537560Y-100836336D01*
X142181169Y-100983958D01*
X142119331Y-101219725D01*
X130012182Y-101219725D01*
X129987053Y-101182118D01*
X129662114Y-100965000D01*
X129987053Y-100747882D01*
X130309828Y-100264816D01*
X130338175Y-100122302D01*
X151625856Y-100122302D01*
X151653638Y-100677368D01*
X151812603Y-101061143D01*
X152054787Y-101130608D01*
X152855395Y-100330000D01*
X153214605Y-100330000D01*
X154015213Y-101130608D01*
X154257397Y-101061143D01*
X154444144Y-100537698D01*
X154423353Y-100122302D01*
X159245856Y-100122302D01*
X159273638Y-100677368D01*
X159432603Y-101061143D01*
X159674787Y-101130608D01*
X160475395Y-100330000D01*
X160834605Y-100330000D01*
X161635213Y-101130608D01*
X161877397Y-101061143D01*
X162064144Y-100537698D01*
X162043353Y-100122302D01*
X166865856Y-100122302D01*
X166893638Y-100677368D01*
X167052603Y-101061143D01*
X167294787Y-101130608D01*
X168095395Y-100330000D01*
X168454605Y-100330000D01*
X169255213Y-101130608D01*
X169497397Y-101061143D01*
X169684144Y-100537698D01*
X169663353Y-100122302D01*
X174485856Y-100122302D01*
X174513638Y-100677368D01*
X174672603Y-101061143D01*
X174914787Y-101130608D01*
X175715395Y-100330000D01*
X176074605Y-100330000D01*
X176875213Y-101130608D01*
X177117397Y-101061143D01*
X177304144Y-100537698D01*
X177276362Y-99982632D01*
X177117397Y-99598857D01*
X176875213Y-99529392D01*
X176074605Y-100330000D01*
X175715395Y-100330000D01*
X174914787Y-99529392D01*
X174672603Y-99598857D01*
X174485856Y-100122302D01*
X169663353Y-100122302D01*
X169656362Y-99982632D01*
X169497397Y-99598857D01*
X169255213Y-99529392D01*
X168454605Y-100330000D01*
X168095395Y-100330000D01*
X167294787Y-99529392D01*
X167052603Y-99598857D01*
X166865856Y-100122302D01*
X162043353Y-100122302D01*
X162036362Y-99982632D01*
X161877397Y-99598857D01*
X161635213Y-99529392D01*
X160834605Y-100330000D01*
X160475395Y-100330000D01*
X159674787Y-99529392D01*
X159432603Y-99598857D01*
X159245856Y-100122302D01*
X154423353Y-100122302D01*
X154416362Y-99982632D01*
X154257397Y-99598857D01*
X154015213Y-99529392D01*
X153214605Y-100330000D01*
X152855395Y-100330000D01*
X152054787Y-99529392D01*
X151812603Y-99598857D01*
X151625856Y-100122302D01*
X130338175Y-100122302D01*
X130423171Y-99695000D01*
X130309828Y-99125184D01*
X129987053Y-98642118D01*
X129662114Y-98425000D01*
X129987053Y-98207882D01*
X130309828Y-97724816D01*
X130423171Y-97155000D01*
X130309828Y-96585184D01*
X130222842Y-96455000D01*
X141433758Y-96455000D01*
X141433758Y-97855000D01*
X141484451Y-98124410D01*
X141643672Y-98371846D01*
X141886615Y-98537843D01*
X142175000Y-98596242D01*
X143575000Y-98596242D01*
X143844410Y-98545549D01*
X144091846Y-98386328D01*
X144257843Y-98143385D01*
X144316242Y-97855000D01*
X144316242Y-97369913D01*
X146609211Y-97369913D01*
X146871500Y-98004700D01*
X147356745Y-98490794D01*
X147991073Y-98754190D01*
X148677913Y-98754789D01*
X149312700Y-98492500D01*
X149798794Y-98007255D01*
X150062190Y-97372927D01*
X150062789Y-96686087D01*
X149800500Y-96051300D01*
X149315255Y-95565206D01*
X149266307Y-95544881D01*
X151545742Y-95544881D01*
X151771951Y-96092349D01*
X152190448Y-96511577D01*
X152210105Y-96519739D01*
X152192651Y-96526951D01*
X151773423Y-96945448D01*
X151546259Y-97492520D01*
X151545742Y-98084881D01*
X151771951Y-98632349D01*
X152190448Y-99051577D01*
X152314629Y-99103141D01*
X152303857Y-99107603D01*
X152234392Y-99349787D01*
X153035000Y-100150395D01*
X153835608Y-99349787D01*
X153766143Y-99107603D01*
X153754967Y-99103616D01*
X153877349Y-99053049D01*
X154296577Y-98634552D01*
X154523741Y-98087480D01*
X154524258Y-97495119D01*
X154298049Y-96947651D01*
X153879552Y-96528423D01*
X153859895Y-96520261D01*
X153877349Y-96513049D01*
X154296577Y-96094552D01*
X154523741Y-95547480D01*
X154523743Y-95544881D01*
X159165742Y-95544881D01*
X159391951Y-96092349D01*
X159810448Y-96511577D01*
X159830105Y-96519739D01*
X159812651Y-96526951D01*
X159393423Y-96945448D01*
X159166259Y-97492520D01*
X159165742Y-98084881D01*
X159391951Y-98632349D01*
X159810448Y-99051577D01*
X159934629Y-99103141D01*
X159923857Y-99107603D01*
X159854392Y-99349787D01*
X160655000Y-100150395D01*
X161455608Y-99349787D01*
X161386143Y-99107603D01*
X161374967Y-99103616D01*
X161497349Y-99053049D01*
X161916577Y-98634552D01*
X162143741Y-98087480D01*
X162144258Y-97495119D01*
X161918049Y-96947651D01*
X161499552Y-96528423D01*
X161479895Y-96520261D01*
X161497349Y-96513049D01*
X161916577Y-96094552D01*
X162143741Y-95547480D01*
X162143743Y-95544881D01*
X166785742Y-95544881D01*
X167011951Y-96092349D01*
X167430448Y-96511577D01*
X167450105Y-96519739D01*
X167432651Y-96526951D01*
X167013423Y-96945448D01*
X166786259Y-97492520D01*
X166785742Y-98084881D01*
X167011951Y-98632349D01*
X167430448Y-99051577D01*
X167554629Y-99103141D01*
X167543857Y-99107603D01*
X167474392Y-99349787D01*
X168275000Y-100150395D01*
X169075608Y-99349787D01*
X169006143Y-99107603D01*
X168994967Y-99103616D01*
X169117349Y-99053049D01*
X169536577Y-98634552D01*
X169763741Y-98087480D01*
X169764258Y-97495119D01*
X169538049Y-96947651D01*
X169119552Y-96528423D01*
X169099895Y-96520261D01*
X169117349Y-96513049D01*
X169536577Y-96094552D01*
X169763741Y-95547480D01*
X169763743Y-95544881D01*
X174405742Y-95544881D01*
X174631951Y-96092349D01*
X175050448Y-96511577D01*
X175070105Y-96519739D01*
X175052651Y-96526951D01*
X174633423Y-96945448D01*
X174406259Y-97492520D01*
X174405742Y-98084881D01*
X174631951Y-98632349D01*
X175050448Y-99051577D01*
X175174629Y-99103141D01*
X175163857Y-99107603D01*
X175094392Y-99349787D01*
X175895000Y-100150395D01*
X176695608Y-99349787D01*
X176626143Y-99107603D01*
X176614967Y-99103616D01*
X176737349Y-99053049D01*
X177156577Y-98634552D01*
X177383741Y-98087480D01*
X177384258Y-97495119D01*
X177158049Y-96947651D01*
X176739552Y-96528423D01*
X176719895Y-96520261D01*
X176737349Y-96513049D01*
X177156577Y-96094552D01*
X177383741Y-95547480D01*
X177384258Y-94955119D01*
X177158049Y-94407651D01*
X176739552Y-93988423D01*
X176192480Y-93761259D01*
X175600119Y-93760742D01*
X175052651Y-93986951D01*
X174633423Y-94405448D01*
X174406259Y-94952520D01*
X174405742Y-95544881D01*
X169763743Y-95544881D01*
X169764258Y-94955119D01*
X169538049Y-94407651D01*
X169119552Y-93988423D01*
X168572480Y-93761259D01*
X167980119Y-93760742D01*
X167432651Y-93986951D01*
X167013423Y-94405448D01*
X166786259Y-94952520D01*
X166785742Y-95544881D01*
X162143743Y-95544881D01*
X162144258Y-94955119D01*
X161918049Y-94407651D01*
X161499552Y-93988423D01*
X160952480Y-93761259D01*
X160360119Y-93760742D01*
X159812651Y-93986951D01*
X159393423Y-94405448D01*
X159166259Y-94952520D01*
X159165742Y-95544881D01*
X154523743Y-95544881D01*
X154524258Y-94955119D01*
X154298049Y-94407651D01*
X153879552Y-93988423D01*
X153332480Y-93761259D01*
X152740119Y-93760742D01*
X152192651Y-93986951D01*
X151773423Y-94405448D01*
X151546259Y-94952520D01*
X151545742Y-95544881D01*
X149266307Y-95544881D01*
X148680927Y-95301810D01*
X147994087Y-95301211D01*
X147359300Y-95563500D01*
X146873206Y-96048745D01*
X146609810Y-96683073D01*
X146609211Y-97369913D01*
X144316242Y-97369913D01*
X144316242Y-96455000D01*
X144265549Y-96185590D01*
X144106328Y-95938154D01*
X143863385Y-95772157D01*
X143575000Y-95713758D01*
X142175000Y-95713758D01*
X141905590Y-95764451D01*
X141658154Y-95923672D01*
X141492157Y-96166615D01*
X141433758Y-96455000D01*
X130222842Y-96455000D01*
X129987053Y-96102118D01*
X129662114Y-95885000D01*
X129987053Y-95667882D01*
X130309828Y-95184816D01*
X130423171Y-94615000D01*
X130309828Y-94045184D01*
X129987053Y-93562118D01*
X129662114Y-93345000D01*
X129987053Y-93127882D01*
X130309828Y-92644816D01*
X130423171Y-92075000D01*
X130390135Y-91908913D01*
X148768211Y-91908913D01*
X149030500Y-92543700D01*
X149515745Y-93029794D01*
X150150073Y-93293190D01*
X150836913Y-93293789D01*
X151471700Y-93031500D01*
X151957794Y-92546255D01*
X152221190Y-91911927D01*
X152221192Y-91908913D01*
X158928211Y-91908913D01*
X159190500Y-92543700D01*
X159675745Y-93029794D01*
X160310073Y-93293190D01*
X160996913Y-93293789D01*
X161631700Y-93031500D01*
X162117794Y-92546255D01*
X162191030Y-92369881D01*
X179396842Y-92369881D01*
X179623051Y-92917349D01*
X180041548Y-93336577D01*
X180061205Y-93344739D01*
X180043751Y-93351951D01*
X179624523Y-93770448D01*
X179397359Y-94317520D01*
X179396842Y-94909881D01*
X179623051Y-95457349D01*
X180041548Y-95876577D01*
X180061205Y-95884739D01*
X180043751Y-95891951D01*
X179624523Y-96310448D01*
X179397359Y-96857520D01*
X179396842Y-97449881D01*
X179623051Y-97997349D01*
X180041548Y-98416577D01*
X180588620Y-98643741D01*
X181180981Y-98644258D01*
X181728449Y-98418049D01*
X182147677Y-97999552D01*
X182155839Y-97979895D01*
X182163051Y-97997349D01*
X182581548Y-98416577D01*
X183128620Y-98643741D01*
X183720981Y-98644258D01*
X184268449Y-98418049D01*
X184687677Y-97999552D01*
X184914841Y-97452480D01*
X184915358Y-96860119D01*
X184689149Y-96312651D01*
X184270652Y-95893423D01*
X184250995Y-95885261D01*
X184268449Y-95878049D01*
X184687677Y-95459552D01*
X184914841Y-94912480D01*
X184915358Y-94320119D01*
X184689149Y-93772651D01*
X184270652Y-93353423D01*
X184250995Y-93345261D01*
X184268449Y-93338049D01*
X184687677Y-92919552D01*
X184914841Y-92372480D01*
X184915358Y-91780119D01*
X184689149Y-91232651D01*
X184270652Y-90813423D01*
X183723580Y-90586259D01*
X183131219Y-90585742D01*
X182583751Y-90811951D01*
X182164523Y-91230448D01*
X182156361Y-91250105D01*
X182149149Y-91232651D01*
X181730652Y-90813423D01*
X181183580Y-90586259D01*
X180591219Y-90585742D01*
X180043751Y-90811951D01*
X179624523Y-91230448D01*
X179397359Y-91777520D01*
X179396842Y-92369881D01*
X162191030Y-92369881D01*
X162381190Y-91911927D01*
X162381789Y-91225087D01*
X162119500Y-90590300D01*
X161634255Y-90104206D01*
X160999927Y-89840810D01*
X160313087Y-89840211D01*
X159678300Y-90102500D01*
X159192206Y-90587745D01*
X158928810Y-91222073D01*
X158928211Y-91908913D01*
X152221192Y-91908913D01*
X152221789Y-91225087D01*
X151959500Y-90590300D01*
X151474255Y-90104206D01*
X150839927Y-89840810D01*
X150153087Y-89840211D01*
X149518300Y-90102500D01*
X149032206Y-90587745D01*
X148768810Y-91222073D01*
X148768211Y-91908913D01*
X130390135Y-91908913D01*
X130309828Y-91505184D01*
X129987053Y-91022118D01*
X129662114Y-90805000D01*
X129987053Y-90587882D01*
X130309828Y-90104816D01*
X130423171Y-89535000D01*
X130309828Y-88965184D01*
X129987053Y-88482118D01*
X129503987Y-88159343D01*
X128934171Y-88046000D01*
X128875829Y-88046000D01*
X128306013Y-88159343D01*
X127822947Y-88482118D01*
X127500172Y-88965184D01*
X127386829Y-89535000D01*
X118058000Y-89535000D01*
X118058000Y-86930000D01*
X135718758Y-86930000D01*
X135718758Y-88330000D01*
X135769451Y-88599410D01*
X135928672Y-88846846D01*
X136171615Y-89012843D01*
X136460000Y-89071242D01*
X137860000Y-89071242D01*
X138129410Y-89020549D01*
X138376846Y-88861328D01*
X138542843Y-88618385D01*
X138601242Y-88330000D01*
X138601242Y-86930000D01*
X138550549Y-86660590D01*
X138391328Y-86413154D01*
X138148385Y-86247157D01*
X137860000Y-86188758D01*
X136460000Y-86188758D01*
X136190590Y-86239451D01*
X135943154Y-86398672D01*
X135777157Y-86641615D01*
X135718758Y-86930000D01*
X118058000Y-86930000D01*
X118058000Y-84796913D01*
X141148211Y-84796913D01*
X141410500Y-85431700D01*
X141895745Y-85917794D01*
X142196026Y-86042482D01*
X141898300Y-86165500D01*
X141412206Y-86650745D01*
X141148810Y-87285073D01*
X141148211Y-87971913D01*
X141410500Y-88606700D01*
X141895745Y-89092794D01*
X142530073Y-89356190D01*
X143216913Y-89356789D01*
X143851700Y-89094500D01*
X144337794Y-88609255D01*
X144601190Y-87974927D01*
X144601789Y-87288087D01*
X144339500Y-86653300D01*
X143854255Y-86167206D01*
X143553974Y-86042518D01*
X143851700Y-85919500D01*
X144337794Y-85434255D01*
X144601190Y-84799927D01*
X144601192Y-84796913D01*
X151308211Y-84796913D01*
X151570500Y-85431700D01*
X152055745Y-85917794D01*
X152356026Y-86042482D01*
X152058300Y-86165500D01*
X151572206Y-86650745D01*
X151308810Y-87285073D01*
X151308211Y-87971913D01*
X151570500Y-88606700D01*
X152055745Y-89092794D01*
X152690073Y-89356190D01*
X153376913Y-89356789D01*
X154011700Y-89094500D01*
X154497794Y-88609255D01*
X154761190Y-87974927D01*
X154761746Y-87336913D01*
X156388211Y-87336913D01*
X156650500Y-87971700D01*
X157135745Y-88457794D01*
X157770073Y-88721190D01*
X158456913Y-88721789D01*
X159091700Y-88459500D01*
X159577794Y-87974255D01*
X159841190Y-87339927D01*
X159841192Y-87336913D01*
X161468211Y-87336913D01*
X161730500Y-87971700D01*
X162215745Y-88457794D01*
X162850073Y-88721190D01*
X163536913Y-88721789D01*
X164171700Y-88459500D01*
X164657794Y-87974255D01*
X164921190Y-87339927D01*
X164921192Y-87336913D01*
X166548211Y-87336913D01*
X166810500Y-87971700D01*
X167295745Y-88457794D01*
X167930073Y-88721190D01*
X168616913Y-88721789D01*
X169251700Y-88459500D01*
X169737794Y-87974255D01*
X170001190Y-87339927D01*
X170001192Y-87336913D01*
X171628211Y-87336913D01*
X171890500Y-87971700D01*
X172375745Y-88457794D01*
X173010073Y-88721190D01*
X173696913Y-88721789D01*
X174331700Y-88459500D01*
X174817794Y-87974255D01*
X175081190Y-87339927D01*
X175081789Y-86653087D01*
X174819500Y-86018300D01*
X174334255Y-85532206D01*
X173699927Y-85268810D01*
X173013087Y-85268211D01*
X172378300Y-85530500D01*
X171892206Y-86015745D01*
X171628810Y-86650073D01*
X171628211Y-87336913D01*
X170001192Y-87336913D01*
X170001789Y-86653087D01*
X169739500Y-86018300D01*
X169254255Y-85532206D01*
X168619927Y-85268810D01*
X167933087Y-85268211D01*
X167298300Y-85530500D01*
X166812206Y-86015745D01*
X166548810Y-86650073D01*
X166548211Y-87336913D01*
X164921192Y-87336913D01*
X164921789Y-86653087D01*
X164659500Y-86018300D01*
X164174255Y-85532206D01*
X163539927Y-85268810D01*
X162853087Y-85268211D01*
X162218300Y-85530500D01*
X161732206Y-86015745D01*
X161468810Y-86650073D01*
X161468211Y-87336913D01*
X159841192Y-87336913D01*
X159841789Y-86653087D01*
X159579500Y-86018300D01*
X159094255Y-85532206D01*
X158459927Y-85268810D01*
X157773087Y-85268211D01*
X157138300Y-85530500D01*
X156652206Y-86015745D01*
X156388810Y-86650073D01*
X156388211Y-87336913D01*
X154761746Y-87336913D01*
X154761789Y-87288087D01*
X154499500Y-86653300D01*
X154014255Y-86167206D01*
X153713974Y-86042518D01*
X154011700Y-85919500D01*
X154497794Y-85434255D01*
X154761190Y-84799927D01*
X154761789Y-84113087D01*
X154499500Y-83478300D01*
X154014255Y-82992206D01*
X153379927Y-82728810D01*
X152693087Y-82728211D01*
X152058300Y-82990500D01*
X151572206Y-83475745D01*
X151308810Y-84110073D01*
X151308211Y-84796913D01*
X144601192Y-84796913D01*
X144601789Y-84113087D01*
X144339500Y-83478300D01*
X143854255Y-82992206D01*
X143219927Y-82728810D01*
X142533087Y-82728211D01*
X141898300Y-82990500D01*
X141412206Y-83475745D01*
X141148810Y-84110073D01*
X141148211Y-84796913D01*
X118058000Y-84796913D01*
X118058000Y-83565275D01*
X136404331Y-83565275D01*
X136466169Y-83801042D01*
X136967122Y-83977419D01*
X137497440Y-83948664D01*
X137853831Y-83801042D01*
X137915669Y-83565275D01*
X137160000Y-82809605D01*
X136404331Y-83565275D01*
X118058000Y-83565275D01*
X118058000Y-82437122D01*
X135812581Y-82437122D01*
X135841336Y-82967440D01*
X135988958Y-83323831D01*
X136224725Y-83385669D01*
X136980395Y-82630000D01*
X137339605Y-82630000D01*
X138095275Y-83385669D01*
X138331042Y-83323831D01*
X138507419Y-82822878D01*
X138478664Y-82292560D01*
X138331042Y-81936169D01*
X138095275Y-81874331D01*
X137339605Y-82630000D01*
X136980395Y-82630000D01*
X136224725Y-81874331D01*
X135988958Y-81936169D01*
X135812581Y-82437122D01*
X118058000Y-82437122D01*
X118058000Y-81694725D01*
X136404331Y-81694725D01*
X137160000Y-82450395D01*
X137915669Y-81694725D01*
X137853831Y-81458958D01*
X137352878Y-81282581D01*
X136822560Y-81311336D01*
X136466169Y-81458958D01*
X136404331Y-81694725D01*
X118058000Y-81694725D01*
X118058000Y-80199000D01*
X141433758Y-80199000D01*
X141433758Y-81599000D01*
X141484451Y-81868410D01*
X141643672Y-82115846D01*
X141886615Y-82281843D01*
X142175000Y-82340242D01*
X143575000Y-82340242D01*
X143844410Y-82289549D01*
X144091846Y-82130328D01*
X144257843Y-81887385D01*
X144316242Y-81599000D01*
X144316242Y-80199000D01*
X144265549Y-79929590D01*
X144106328Y-79682154D01*
X143863385Y-79516157D01*
X143575000Y-79457758D01*
X142175000Y-79457758D01*
X141905590Y-79508451D01*
X141658154Y-79667672D01*
X141492157Y-79910615D01*
X141433758Y-80199000D01*
X118058000Y-80199000D01*
X118058000Y-76834275D01*
X142119331Y-76834275D01*
X142181169Y-77070042D01*
X142682122Y-77246419D01*
X143212440Y-77217664D01*
X143310821Y-77176913D01*
X156388211Y-77176913D01*
X156650500Y-77811700D01*
X157135745Y-78297794D01*
X157770073Y-78561190D01*
X158456913Y-78561789D01*
X159091700Y-78299500D01*
X159577794Y-77814255D01*
X159841190Y-77179927D01*
X159841192Y-77176913D01*
X161468211Y-77176913D01*
X161730500Y-77811700D01*
X162215745Y-78297794D01*
X162850073Y-78561190D01*
X163536913Y-78561789D01*
X164171700Y-78299500D01*
X164657794Y-77814255D01*
X164921190Y-77179927D01*
X164921192Y-77176913D01*
X166548211Y-77176913D01*
X166810500Y-77811700D01*
X167295745Y-78297794D01*
X167930073Y-78561190D01*
X168616913Y-78561789D01*
X169251700Y-78299500D01*
X169737794Y-77814255D01*
X170001190Y-77179927D01*
X170001192Y-77176913D01*
X171628211Y-77176913D01*
X171890500Y-77811700D01*
X172375745Y-78297794D01*
X173010073Y-78561190D01*
X173696913Y-78561789D01*
X174331700Y-78299500D01*
X174817794Y-77814255D01*
X175081190Y-77179927D01*
X175081789Y-76493087D01*
X174819500Y-75858300D01*
X174334255Y-75372206D01*
X173699927Y-75108810D01*
X173013087Y-75108211D01*
X172378300Y-75370500D01*
X171892206Y-75855745D01*
X171628810Y-76490073D01*
X171628211Y-77176913D01*
X170001192Y-77176913D01*
X170001789Y-76493087D01*
X169739500Y-75858300D01*
X169254255Y-75372206D01*
X168619927Y-75108810D01*
X167933087Y-75108211D01*
X167298300Y-75370500D01*
X166812206Y-75855745D01*
X166548810Y-76490073D01*
X166548211Y-77176913D01*
X164921192Y-77176913D01*
X164921789Y-76493087D01*
X164659500Y-75858300D01*
X164174255Y-75372206D01*
X163539927Y-75108810D01*
X162853087Y-75108211D01*
X162218300Y-75370500D01*
X161732206Y-75855745D01*
X161468810Y-76490073D01*
X161468211Y-77176913D01*
X159841192Y-77176913D01*
X159841789Y-76493087D01*
X159579500Y-75858300D01*
X159094255Y-75372206D01*
X158459927Y-75108810D01*
X157773087Y-75108211D01*
X157138300Y-75370500D01*
X156652206Y-75855745D01*
X156388810Y-76490073D01*
X156388211Y-77176913D01*
X143310821Y-77176913D01*
X143568831Y-77070042D01*
X143630669Y-76834275D01*
X142875000Y-76078605D01*
X142119331Y-76834275D01*
X118058000Y-76834275D01*
X118058000Y-75706122D01*
X141527581Y-75706122D01*
X141556336Y-76236440D01*
X141703958Y-76592831D01*
X141939725Y-76654669D01*
X142695395Y-75899000D01*
X143054605Y-75899000D01*
X143810275Y-76654669D01*
X144046042Y-76592831D01*
X144222419Y-76091878D01*
X144193664Y-75561560D01*
X144046042Y-75205169D01*
X143810275Y-75143331D01*
X143054605Y-75899000D01*
X142695395Y-75899000D01*
X141939725Y-75143331D01*
X141703958Y-75205169D01*
X141527581Y-75706122D01*
X118058000Y-75706122D01*
X118058000Y-74963725D01*
X142119331Y-74963725D01*
X142875000Y-75719395D01*
X143630669Y-74963725D01*
X143568831Y-74727958D01*
X143067878Y-74551581D01*
X142537560Y-74580336D01*
X142181169Y-74727958D01*
X142119331Y-74963725D01*
X118058000Y-74963725D01*
X118058000Y-69798000D01*
X131310461Y-69798000D01*
X130665106Y-70442229D01*
M02*
